<?xml version="1.0" encoding="utf-8" standalone="no"?>
<!DOCTYPE svg PUBLIC "-//W3C//DTD SVG 1.1//EN"
  "http://www.w3.org/Graphics/SVG/1.1/DTD/svg11.dtd">
<svg xmlns:xlink="http://www.w3.org/1999/xlink" width="1584pt" height="864pt" viewBox="0 0 1584 864" xmlns="http://www.w3.org/2000/svg" version="1.1">
 <metadata>
  <rdf:RDF xmlns:dc="http://purl.org/dc/elements/1.1/" xmlns:cc="http://creativecommons.org/ns#" xmlns:rdf="http://www.w3.org/1999/02/22-rdf-syntax-ns#">
   <cc:Work>
    <dc:type rdf:resource="http://purl.org/dc/dcmitype/StillImage"/>
    <dc:date>2025-05-15T10:53:39.651307</dc:date>
    <dc:format>image/svg+xml</dc:format>
    <dc:creator>
     <cc:Agent>
      <dc:title>Matplotlib v3.10.3, https://matplotlib.org/</dc:title>
     </cc:Agent>
    </dc:creator>
   </cc:Work>
  </rdf:RDF>
 </metadata>
 <defs>
  <style type="text/css">*{stroke-linejoin: round; stroke-linecap: butt}</style>
 </defs>
 <g id="figure_1">
  <g id="patch_1">
   <path d="M 0 864 
L 1584 864 
L 1584 0 
L 0 0 
z
" style="fill: #ffffff"/>
  </g>
  <g id="axes_1">
   <g id="patch_2">
    <path d="M 303.964559 288.523563 
Q 375.041217 317.218821 444.044411 345.076974 
" clip-path="url(#pc8c4460951)" style="fill: none; stroke: #000000; stroke-width: 2; stroke-linecap: round"/>
    <path d="M 438.123617 338.37293 
L 444.044411 345.076974 
L 435.1287 345.791183 
z
" clip-path="url(#pc8c4460951)" style="stroke: #000000; stroke-width: 2; stroke-linecap: round"/>
   </g>
   <g id="patch_3">
    <path d="M 304.520261 286.415803 
Q 537.588694 317.219347 768.440335 347.729908 
" clip-path="url(#pc8c4460951)" style="fill: none; stroke: #000000; stroke-width: 2; stroke-linecap: round"/>
    <path d="M 761.033407 342.716185 
L 768.440335 347.729908 
L 759.9852 350.647217 
z
" clip-path="url(#pc8c4460951)" style="stroke: #000000; stroke-width: 2; stroke-linecap: round"/>
   </g>
   <g id="patch_4">
    <path d="M 302.720098 290.661305 
Q 443.086213 401.927052 581.700014 511.803771 
" clip-path="url(#pc8c4460951)" style="fill: none; stroke: #000000; stroke-width: 2; stroke-linecap: round"/>
    <path d="M 577.915516 503.699601 
L 581.700014 511.803771 
L 572.945979 509.968868 
z
" clip-path="url(#pc8c4460951)" style="stroke: #000000; stroke-width: 2; stroke-linecap: round"/>
   </g>
   <g id="patch_5">
    <path d="M 304.265595 282.930599 
Q 650.44354 185.299793 994.469367 88.275937 
" clip-path="url(#pc8c4460951)" style="fill: none; stroke: #000000; stroke-width: 2; stroke-linecap: round"/>
    <path d="M 985.68397 86.597605 
L 994.469367 88.275937 
L 987.855464 94.297256 
z
" clip-path="url(#pc8c4460951)" style="stroke: #000000; stroke-width: 2; stroke-linecap: round"/>
   </g>
   <g id="patch_6">
    <path d="M 300.956405 134.031776 
Q 375.042729 238.067699 447.831976 340.282196 
" clip-path="url(#pc8c4460951)" style="fill: none; stroke: #000000; stroke-width: 2; stroke-linecap: round"/>
    <path d="M 446.449673 331.445384 
L 447.831976 340.282196 
L 439.933145 336.085951 
z
" clip-path="url(#pc8c4460951)" style="stroke: #000000; stroke-width: 2; stroke-linecap: round"/>
   </g>
   <g id="patch_7">
    <path d="M 303.797535 130.592403 
Q 537.587158 238.066699 769.345108 344.607024 
" clip-path="url(#pc8c4460951)" style="fill: none; stroke: #000000; stroke-width: 2; stroke-linecap: round"/>
    <path d="M 763.747109 337.631179 
L 769.345108 344.607024 
L 760.405633 344.899916 
z
" clip-path="url(#pc8c4460951)" style="stroke: #000000; stroke-width: 2; stroke-linecap: round"/>
   </g>
   <g id="patch_8">
    <path d="M 301.134869 133.89907 
Q 443.084377 322.773396 583.690465 509.860202 
" clip-path="url(#pc8c4460951)" style="fill: none; stroke: #000000; stroke-width: 2; stroke-linecap: round"/>
    <path d="M 582.081713 501.061798 
L 583.690465 509.860202 
L 575.686491 505.868162 
z
" clip-path="url(#pc8c4460951)" style="stroke: #000000; stroke-width: 2; stroke-linecap: round"/>
   </g>
   <g id="patch_9">
    <path d="M 304.579343 126.468684 
Q 650.44732 106.147145 994.083079 85.95676 
" clip-path="url(#pc8c4460951)" style="fill: none; stroke: #000000; stroke-width: 2; stroke-linecap: round"/>
    <path d="M 985.862236 82.432879 
L 994.083079 85.95676 
L 986.331468 90.419106 
z
" clip-path="url(#pc8c4460951)" style="stroke: #000000; stroke-width: 2; stroke-linecap: round"/>
   </g>
   <g id="patch_10">
    <path d="M 302.356669 211.936261 
Q 375.043159 277.643953 446.070885 341.852143 
" clip-path="url(#pc8c4460951)" style="fill: none; stroke: #000000; stroke-width: 2; stroke-linecap: round"/>
    <path d="M 442.818703 333.520078 
L 446.070885 341.852143 
L 437.453923 339.454649 
z
" clip-path="url(#pc8c4460951)" style="stroke: #000000; stroke-width: 2; stroke-linecap: round"/>
   </g>
   <g id="patch_11">
    <path d="M 304.24002 208.587291 
Q 537.590998 277.644058 768.797828 346.066296 
" clip-path="url(#pc8c4460951)" style="fill: none; stroke: #000000; stroke-width: 2; stroke-linecap: round"/>
    <path d="M 762.261769 339.960566 
L 768.797828 346.066296 
L 759.991609 347.631705 
z
" clip-path="url(#pc8c4460951)" style="stroke: #000000; stroke-width: 2; stroke-linecap: round"/>
   </g>
   <g id="patch_12">
    <path d="M 301.87135 212.433765 
Q 443.085235 362.350408 582.765932 510.639374 
" clip-path="url(#pc8c4460951)" style="fill: none; stroke: #000000; stroke-width: 2; stroke-linecap: round"/>
    <path d="M 580.192305 502.073369 
L 582.765932 510.639374 
L 574.368951 507.558673 
z
" clip-path="url(#pc8c4460951)" style="stroke: #000000; stroke-width: 2; stroke-linecap: round"/>
   </g>
   <g id="patch_13">
    <path d="M 304.471154 204.673833 
Q 650.446001 145.72316 994.216549 87.148078 
" clip-path="url(#pc8c4460951)" style="fill: none; stroke: #000000; stroke-width: 2; stroke-linecap: round"/>
    <path d="M 985.658335 84.548663 
L 994.216549 87.148078 
L 987.002088 92.435001 
z
" clip-path="url(#pc8c4460951)" style="stroke: #000000; stroke-width: 2; stroke-linecap: round"/>
   </g>
   <g id="patch_14">
    <path d="M 304.358081 384.654288 
Q 375.042793 367.904298 443.551693 351.669905 
" clip-path="url(#pc8c4460951)" style="fill: none; stroke: #000000; stroke-width: 2; stroke-linecap: round"/>
    <path d="M 434.844942 349.62235 
L 443.551693 351.669905 
L 436.689598 357.406773 
z
" clip-path="url(#pc8c4460951)" style="stroke: #000000; stroke-width: 2; stroke-linecap: round"/>
   </g>
   <g id="patch_15">
    <path d="M 304.56451 385.981271 
Q 537.585868 367.904582 768.377855 350.000837 
" clip-path="url(#pc8c4460951)" style="fill: none; stroke: #000000; stroke-width: 2; stroke-linecap: round"/>
    <path d="M 760.092447 346.631561 
L 768.377855 350.000837 
L 760.71119 354.607598 
z
" clip-path="url(#pc8c4460951)" style="stroke: #000000; stroke-width: 2; stroke-linecap: round"/>
   </g>
   <g id="patch_16">
    <path d="M 303.831555 390.191674 
Q 443.081466 452.609474 580.290919 514.112653 
" clip-path="url(#pc8c4460951)" style="fill: none; stroke: #000000; stroke-width: 2; stroke-linecap: round"/>
    <path d="M 574.626879 507.190324 
L 580.290919 514.112653 
L 571.354632 514.490488 
z
" clip-path="url(#pc8c4460951)" style="stroke: #000000; stroke-width: 2; stroke-linecap: round"/>
   </g>
   <g id="patch_17">
    <path d="M 462.80862 349.15785 
Q 616.6979 349.15785 768.351112 349.15785 
" clip-path="url(#pc8c4460951)" style="fill: none; stroke: #000000; stroke-width: 2; stroke-linecap: round"/>
    <path d="M 760.351112 345.15785 
L 768.351112 349.15785 
L 760.351112 353.15785 
z
" clip-path="url(#pc8c4460951)" style="stroke: #000000; stroke-width: 2; stroke-linecap: round"/>
   </g>
   <g id="patch_18">
    <path d="M 462.510933 351.433658 
Q 729.556783 424.14434 994.44511 496.267575 
" clip-path="url(#pc8c4460951)" style="fill: none; stroke: #000000; stroke-width: 2; stroke-linecap: round"/>
    <path d="M 987.776974 490.306369 
L 994.44511 496.267575 
L 985.675264 498.025359 
z
" clip-path="url(#pc8c4460951)" style="stroke: #000000; stroke-width: 2; stroke-linecap: round"/>
   </g>
   <g id="patch_19">
    <path d="M 462.8135 349.15785 
Q 729.557356 349.15785 994.065144 349.15785 
" clip-path="url(#pc8c4460951)" style="fill: none; stroke: #000000; stroke-width: 2; stroke-linecap: round"/>
    <path d="M 986.065144 345.15785 
L 994.065144 349.15785 
L 986.065144 353.15785 
z
" clip-path="url(#pc8c4460951)" style="stroke: #000000; stroke-width: 2; stroke-linecap: round"/>
   </g>
   <g id="patch_20">
    <path d="M 461.897395 353.043428 
Q 729.556031 487.327023 995.216025 620.607905 
" clip-path="url(#pc8c4460951)" style="fill: none; stroke: #000000; stroke-width: 2; stroke-linecap: round"/>
    <path d="M 989.859176 613.445213 
L 995.216025 620.607905 
L 986.271761 620.595769 
z
" clip-path="url(#pc8c4460951)" style="stroke: #000000; stroke-width: 2; stroke-linecap: round"/>
   </g>
   <g id="patch_21">
    <path d="M 461.964632 345.415794 
Q 729.556987 217.237076 995.132694 90.024346 
" clip-path="url(#pc8c4460951)" style="fill: none; stroke: #000000; stroke-width: 2; stroke-linecap: round"/>
    <path d="M 986.189705 89.872885 
L 995.132694 90.024346 
L 989.645732 97.087861 
z
" clip-path="url(#pc8c4460951)" style="stroke: #000000; stroke-width: 2; stroke-linecap: round"/>
   </g>
   <g id="patch_22">
    <path d="M 462.729454 350.325503 
Q 729.551894 386.650429 994.158704 422.673721 
" clip-path="url(#pc8c4460951)" style="fill: none; stroke: #000000; stroke-width: 2; stroke-linecap: round"/>
    <path d="M 986.771403 417.631124 
L 994.158704 422.673721 
L 985.692246 425.558004 
z
" clip-path="url(#pc8c4460951)" style="stroke: #000000; stroke-width: 2; stroke-linecap: round"/>
   </g>
   <g id="patch_23">
    <path d="M 459.264335 356.145082 
Q 616.697229 571.337167 772.809838 784.724578 
" clip-path="url(#pc8c4460951)" style="fill: none; stroke: #000000; stroke-width: 2; stroke-linecap: round"/>
    <path d="M 771.31454 775.906184 
L 772.809838 784.724578 
L 764.857943 780.629781 
z
" clip-path="url(#pc8c4460951)" style="stroke: #000000; stroke-width: 2; stroke-linecap: round"/>
   </g>
   <g id="patch_24">
    <path d="M 459.574232 355.907386 
Q 522.193146 433.862339 583.411725 510.074 
" clip-path="url(#pc8c4460951)" style="fill: none; stroke: #000000; stroke-width: 2; stroke-linecap: round"/>
    <path d="M 581.520231 501.332018 
L 583.411725 510.074 
L 575.283243 506.342007 
z
" clip-path="url(#pc8c4460951)" style="stroke: #000000; stroke-width: 2; stroke-linecap: round"/>
   </g>
   <g id="patch_25">
    <path d="M 1012.713788 495.28388 
Q 1118.357529 442.891049 1221.998026 391.491705 
" clip-path="url(#pc8c4460951)" style="fill: none; stroke: #000000; stroke-width: 2; stroke-linecap: round"/>
    <path d="M 1213.053801 391.462599 
L 1221.998026 391.491705 
L 1216.608206 398.629621 
z
" clip-path="url(#pc8c4460951)" style="stroke: #000000; stroke-width: 2; stroke-linecap: round"/>
   </g>
   <g id="patch_26">
    <path d="M 1013.502828 497.717588 
Q 1118.359722 480.383387 1221.010488 463.413887 
" clip-path="url(#pc8c4460951)" style="fill: none; stroke: #000000; stroke-width: 2; stroke-linecap: round"/>
    <path d="M 1212.465214 460.772243 
L 1221.010488 463.413887 
L 1213.770009 468.665121 
z
" clip-path="url(#pc8c4460951)" style="stroke: #000000; stroke-width: 2; stroke-linecap: round"/>
   </g>
   <g id="patch_27">
    <path d="M 1013.502828 350.570361 
Q 1118.359722 367.904562 1221.010488 384.874062 
" clip-path="url(#pc8c4460951)" style="fill: none; stroke: #000000; stroke-width: 2; stroke-linecap: round"/>
    <path d="M 1213.770009 379.622828 
L 1221.010488 384.874062 
L 1212.465214 387.515706 
z
" clip-path="url(#pc8c4460951)" style="stroke: #000000; stroke-width: 2; stroke-linecap: round"/>
   </g>
   <g id="patch_28">
    <path d="M 1012.713788 353.004069 
Q 1118.357529 405.3969 1221.998026 456.796244 
" clip-path="url(#pc8c4460951)" style="fill: none; stroke: #000000; stroke-width: 2; stroke-linecap: round"/>
    <path d="M 1216.608206 449.658328 
L 1221.998026 456.796244 
L 1213.053801 456.82535 
z
" clip-path="url(#pc8c4460951)" style="stroke: #000000; stroke-width: 2; stroke-linecap: round"/>
   </g>
   <g id="patch_29">
    <path d="M 1011.98012 620.422531 
Q 1118.360008 543.565322 1222.927384 468.017615 
" clip-path="url(#pc8c4460951)" style="fill: none; stroke: #000000; stroke-width: 2; stroke-linecap: round"/>
    <path d="M 1214.100231 469.460311 
L 1222.927384 468.017615 
L 1218.785249 475.944955 
z
" clip-path="url(#pc8c4460951)" style="stroke: #000000; stroke-width: 2; stroke-linecap: round"/>
   </g>
   <g id="patch_30">
    <path d="M 1009.427852 92.733801 
Q 1118.358562 273.477304 1226.135051 452.305664 
" clip-path="url(#pc8c4460951)" style="fill: none; stroke: #000000; stroke-width: 2; stroke-linecap: round"/>
    <path d="M 1225.431497 443.389106 
L 1226.135051 452.305664 
L 1218.579672 447.518572 
z
" clip-path="url(#pc8c4460951)" style="stroke: #000000; stroke-width: 2; stroke-linecap: round"/>
   </g>
   <g id="patch_31">
    <path d="M 1010.164982 92.23544 
Q 1118.357526 235.982887 1225.205394 377.94376 
" clip-path="url(#pc8c4460951)" style="fill: none; stroke: #000000; stroke-width: 2; stroke-linecap: round"/>
    <path d="M 1223.59045 369.146491 
L 1225.205394 377.94376 
L 1217.198612 373.957354 
z
" clip-path="url(#pc8c4460951)" style="stroke: #000000; stroke-width: 2; stroke-linecap: round"/>
   </g>
   <g id="patch_32">
    <path d="M 1013.502828 422.731463 
Q 1118.359722 405.397262 1221.010488 388.427763 
" clip-path="url(#pc8c4460951)" style="fill: none; stroke: #000000; stroke-width: 2; stroke-linecap: round"/>
    <path d="M 1212.465214 385.786119 
L 1221.010488 388.427763 
L 1213.770009 393.678996 
z
" clip-path="url(#pc8c4460951)" style="stroke: #000000; stroke-width: 2; stroke-linecap: round"/>
   </g>
   <g id="patch_33">
    <path d="M 1013.502828 425.556486 
Q 1118.359722 442.890687 1221.010488 459.860186 
" clip-path="url(#pc8c4460951)" style="fill: none; stroke: #000000; stroke-width: 2; stroke-linecap: round"/>
    <path d="M 1213.770009 454.608953 
L 1221.010488 459.860186 
L 1212.465214 462.50183 
z
" clip-path="url(#pc8c4460951)" style="stroke: #000000; stroke-width: 2; stroke-linecap: round"/>
   </g>
   <g id="patch_34">
    <path d="M 786.22878 788.3977 
Q 1005.501236 627.578912 1222.97059 468.082554 
" clip-path="url(#pc8c4460951)" style="fill: none; stroke: #000000; stroke-width: 2; stroke-linecap: round"/>
    <path d="M 1214.15398 469.58834 
L 1222.97059 468.082554 
L 1218.885253 476.039313 
z
" clip-path="url(#pc8c4460951)" style="stroke: #000000; stroke-width: 2; stroke-linecap: round"/>
   </g>
   <g id="patch_35">
    <path d="M 786.459983 353.952037 
Q 892.103427 424.145285 995.884433 493.101063 
" clip-path="url(#pc8c4460951)" style="fill: none; stroke: #000000; stroke-width: 2; stroke-linecap: round"/>
    <path d="M 991.434829 485.342131 
L 995.884433 493.101063 
L 987.007525 492.005388 
z
" clip-path="url(#pc8c4460951)" style="stroke: #000000; stroke-width: 2; stroke-linecap: round"/>
   </g>
   <g id="patch_36">
    <path d="M 787.906514 349.15785 
Q 892.102063 349.15785 994.061543 349.15785 
" clip-path="url(#pc8c4460951)" style="fill: none; stroke: #000000; stroke-width: 2; stroke-linecap: round"/>
    <path d="M 986.061543 345.15785 
L 994.061543 349.15785 
L 986.061543 353.15785 
z
" clip-path="url(#pc8c4460951)" style="stroke: #000000; stroke-width: 2; stroke-linecap: round"/>
   </g>
   <g id="patch_37">
    <path d="M 784.722425 355.864319 
Q 892.100716 487.325823 998.064473 617.055536 
" clip-path="url(#pc8c4460951)" style="fill: none; stroke: #000000; stroke-width: 2; stroke-linecap: round"/>
    <path d="M 996.101606 608.329303 
L 998.064473 617.055536 
L 989.905766 613.39009 
z
" clip-path="url(#pc8c4460951)" style="stroke: #000000; stroke-width: 2; stroke-linecap: round"/>
   </g>
   <g id="patch_38">
    <path d="M 784.873967 342.577549 
Q 892.101132 217.238192 997.874699 93.597968 
" clip-path="url(#pc8c4460951)" style="fill: none; stroke: #000000; stroke-width: 2; stroke-linecap: round"/>
    <path d="M 989.634646 97.076692 
L 997.874699 93.597968 
L 995.713646 102.277245 
z
" clip-path="url(#pc8c4460951)" style="stroke: #000000; stroke-width: 2; stroke-linecap: round"/>
   </g>
   <g id="patch_39">
    <path d="M 787.465666 351.889049 
Q 892.101832 386.651037 994.615969 420.70805 
" clip-path="url(#pc8c4460951)" style="fill: none; stroke: #000000; stroke-width: 2; stroke-linecap: round"/>
    <path d="M 988.285064 414.38985 
L 994.615969 420.70805 
L 985.762866 421.981854 
z
" clip-path="url(#pc8c4460951)" style="stroke: #000000; stroke-width: 2; stroke-linecap: round"/>
   </g>
   <g id="patch_40">
    <path d="M 596.688636 512.788215 
Q 684.742283 433.86308 771.130839 356.430416 
" clip-path="url(#pc8c4460951)" style="fill: none; stroke: #000000; stroke-width: 2; stroke-linecap: round"/>
    <path d="M 762.503814 358.791438 
L 771.130839 356.430416 
L 767.843442 364.74865 
z
" clip-path="url(#pc8c4460951)" style="stroke: #000000; stroke-width: 2; stroke-linecap: round"/>
   </g>
   <g id="patch_41">
    <path d="M 598.890809 518.165286 
Q 797.598157 508.850502 994.071889 499.640423 
" clip-path="url(#pc8c4460951)" style="fill: none; stroke: #000000; stroke-width: 2; stroke-linecap: round"/>
    <path d="M 985.893362 496.019415 
L 994.071889 499.640423 
L 986.267966 504.010639 
z
" clip-path="url(#pc8c4460951)" style="stroke: #000000; stroke-width: 2; stroke-linecap: round"/>
   </g>
   <g id="patch_42">
    <path d="M 598.251667 515.296995 
Q 797.597583 433.864452 994.873484 353.277507 
" clip-path="url(#pc8c4460951)" style="fill: none; stroke: #000000; stroke-width: 2; stroke-linecap: round"/>
    <path d="M 985.954919 352.599856 
L 994.873484 353.277507 
L 988.980224 360.005768 
z
" clip-path="url(#pc8c4460951)" style="stroke: #000000; stroke-width: 2; stroke-linecap: round"/>
   </g>
   <g id="patch_43">
    <path d="M 598.625027 520.733554 
Q 797.598837 572.033566 994.407387 622.775324 
" clip-path="url(#pc8c4460951)" style="fill: none; stroke: #000000; stroke-width: 2; stroke-linecap: round"/>
    <path d="M 987.65935 616.904719 
L 994.407387 622.775324 
L 985.662081 624.65139 
z
" clip-path="url(#pc8c4460951)" style="stroke: #000000; stroke-width: 2; stroke-linecap: round"/>
   </g>
   <g id="patch_44">
    <path d="M 598.681981 516.648144 
Q 797.596905 471.357645 994.331562 426.563566 
" clip-path="url(#pc8c4460951)" style="fill: none; stroke: #000000; stroke-width: 2; stroke-linecap: round"/>
    <path d="M 985.643176 424.439432 
L 994.331562 426.563566 
L 987.419223 432.239794 
z
" clip-path="url(#pc8c4460951)" style="stroke: #000000; stroke-width: 2; stroke-linecap: round"/>
   </g>
   <g id="patch_45">
    <path d="M 1240.329863 387.898659 
Q 1360.533768 405.397742 1478.52493 422.574698 
" clip-path="url(#pc8c4460951)" style="fill: none; stroke: #ff0000; stroke-width: 2; stroke-linecap: round"/>
    <path d="M 1471.184618 417.463943 
L 1478.52493 422.574698 
L 1470.032139 425.380495 
z
" clip-path="url(#pc8c4460951)" style="fill: #ff0000; stroke: #ff0000; stroke-width: 2; stroke-linecap: round"/>
   </g>
   <g id="patch_46">
    <path d="M 1240.329863 460.38929 
Q 1360.533768 442.890207 1478.52493 425.713251 
" clip-path="url(#pc8c4460951)" style="fill: none; stroke: #ff0000; stroke-width: 2; stroke-linecap: round"/>
    <path d="M 1470.032139 422.907454 
L 1478.52493 425.713251 
L 1471.184618 430.824006 
z
" clip-path="url(#pc8c4460951)" style="fill: #ff0000; stroke: #ff0000; stroke-width: 2; stroke-linecap: round"/>
   </g>
   <g id="patch_47">
    <path d="M 123.494325 207.951652 
Q 447.13567 277.643071 768.591053 346.863775 
" clip-path="url(#pc8c4460951)" style="fill: none; stroke: #000000; stroke-width: 2; stroke-linecap: round"/>
    <path d="M 761.61236 341.269328 
L 768.591053 346.863775 
L 759.928279 349.090061 
z
" clip-path="url(#pc8c4460951)" style="stroke: #000000; stroke-width: 2; stroke-linecap: round"/>
   </g>
   <g id="patch_48">
    <path d="M 122.965016 209.601081 
Q 205.480539 245.704718 285.947501 280.912033 
" clip-path="url(#pc8c4460951)" style="fill: none; stroke: #000000; stroke-width: 2; stroke-linecap: round"/>
    <path d="M 280.221734 274.040672 
L 285.947501 280.912033 
L 277.014953 281.36983 
z
" clip-path="url(#pc8c4460951)" style="stroke: #000000; stroke-width: 2; stroke-linecap: round"/>
   </g>
   <g id="patch_49">
    <path d="M 122.965016 202.656438 
Q 205.480539 166.552801 285.947501 131.345487 
" clip-path="url(#pc8c4460951)" style="fill: none; stroke: #000000; stroke-width: 2; stroke-linecap: round"/>
    <path d="M 277.014953 130.88769 
L 285.947501 131.345487 
L 280.221734 138.216847 
z
" clip-path="url(#pc8c4460951)" style="stroke: #000000; stroke-width: 2; stroke-linecap: round"/>
   </g>
   <g id="patch_50">
    <path d="M 123.688232 206.12876 
Q 205.480273 206.12876 285.036247 206.12876 
" clip-path="url(#pc8c4460951)" style="fill: none; stroke: #000000; stroke-width: 2; stroke-linecap: round"/>
    <path d="M 277.036247 202.12876 
L 285.036247 206.12876 
L 277.036247 210.12876 
z
" clip-path="url(#pc8c4460951)" style="stroke: #000000; stroke-width: 2; stroke-linecap: round"/>
   </g>
   <g id="patch_51">
    <path d="M 121.159736 212.246614 
Q 205.480537 296.389716 288.218533 378.953347 
" clip-path="url(#pc8c4460951)" style="fill: none; stroke: #000000; stroke-width: 2; stroke-linecap: round"/>
    <path d="M 285.381157 370.471054 
L 288.218533 378.953347 
L 279.730273 376.133872 
z
" clip-path="url(#pc8c4460951)" style="stroke: #000000; stroke-width: 2; stroke-linecap: round"/>
   </g>
   <g id="PathCollection_1">
    <path d="M 295.932355 304.645697 
C 301.067991 304.645697 305.993975 302.605287 309.625418 298.973844 
C 313.256861 295.342401 315.297271 290.416416 315.297271 285.28078 
C 315.297271 280.145145 313.256861 275.21916 309.625418 271.587717 
C 305.993975 267.956274 301.067991 265.915864 295.932355 265.915864 
C 290.796719 265.915864 285.870734 267.956274 282.239291 271.587717 
C 278.607848 275.21916 276.567438 280.145145 276.567438 285.28078 
C 276.567438 290.416416 278.607848 295.342401 282.239291 298.973844 
C 285.870734 302.605287 290.796719 304.645697 295.932355 304.645697 
z
" clip-path="url(#pc8c4460951)" style="fill: #d3d3d3; stroke: #d3d3d3"/>
    <path d="M 295.932355 146.341656 
C 301.067991 146.341656 305.993975 144.301246 309.625418 140.669803 
C 313.256861 137.03836 315.297271 132.112375 315.297271 126.976739 
C 315.297271 121.841103 313.256861 116.915118 309.625418 113.283675 
C 305.993975 109.652232 301.067991 107.611822 295.932355 107.611822 
C 290.796719 107.611822 285.870734 109.652232 282.239291 113.283675 
C 278.607848 116.915118 276.567438 121.841103 276.567438 126.976739 
C 276.567438 132.112375 278.607848 137.03836 282.239291 140.669803 
C 285.870734 144.301246 290.796719 146.341656 295.932355 146.341656 
z
" clip-path="url(#pc8c4460951)" style="fill: #d3d3d3; stroke: #d3d3d3"/>
    <path d="M 295.932355 225.493677 
C 301.067991 225.493677 305.993975 223.453267 309.625418 219.821824 
C 313.256861 216.190381 315.297271 211.264396 315.297271 206.12876 
C 315.297271 200.993124 313.256861 196.067139 309.625418 192.435696 
C 305.993975 188.804253 301.067991 186.763843 295.932355 186.763843 
C 290.796719 186.763843 285.870734 188.804253 282.239291 192.435696 
C 278.607848 196.067139 276.567438 200.993124 276.567438 206.12876 
C 276.567438 211.264396 278.607848 216.190381 282.239291 219.821824 
C 285.870734 223.453267 290.796719 225.493677 295.932355 225.493677 
z
" clip-path="url(#pc8c4460951)" style="fill: #d3d3d3; stroke: #d3d3d3"/>
    <path d="M 295.932355 406.015829 
C 301.067991 406.015829 305.993975 403.975419 309.625418 400.343976 
C 313.256861 396.712533 315.297271 391.786548 315.297271 386.650912 
C 315.297271 381.515276 313.256861 376.589291 309.625418 372.957848 
C 305.993975 369.326405 301.067991 367.285995 295.932355 367.285995 
C 290.796719 367.285995 285.870734 369.326405 282.239291 372.957848 
C 278.607848 376.589291 276.567438 381.515276 276.567438 386.650912 
C 276.567438 391.786548 278.607848 396.712533 282.239291 400.343976 
C 285.870734 403.975419 290.796719 406.015829 295.932355 406.015829 
z
" clip-path="url(#pc8c4460951)" style="fill: #d3d3d3; stroke: #d3d3d3"/>
    <path d="M 454.152529 372.609929 
C 460.372093 372.609929 466.337757 370.13887 470.735653 365.740974 
C 475.133549 361.343078 477.604607 355.377414 477.604607 349.15785 
C 477.604607 342.938286 475.133549 336.972622 470.735653 332.574726 
C 466.337757 328.17683 460.372093 325.705771 454.152529 325.705771 
C 447.932965 325.705771 441.967301 328.17683 437.569405 332.574726 
C 433.171509 336.972622 430.70045 342.938286 430.70045 349.15785 
C 430.70045 355.377414 433.171509 361.343078 437.569405 365.740974 
C 441.967301 370.13887 447.932965 372.609929 454.152529 372.609929 
z
" clip-path="url(#pc8c4460951)" style="fill: #ffcc00; stroke: #ffcc00"/>
    <path d="M 1004.958356 520.343303 
C 1010.584164 520.343303 1015.98031 518.108146 1019.958356 514.130099 
C 1023.936403 510.152053 1026.17156 504.755907 1026.17156 499.130099 
C 1026.17156 493.504292 1023.936403 488.108146 1019.958356 484.130099 
C 1015.98031 480.152053 1010.584164 477.916896 1004.958356 477.916896 
C 999.332549 477.916896 993.936403 480.152053 989.958356 484.130099 
C 985.98031 488.108146 983.745153 493.504292 983.745153 499.130099 
C 983.745153 504.755907 985.98031 510.152053 989.958356 514.130099 
C 993.936403 518.108146 999.332549 520.343303 1004.958356 520.343303 
z
" clip-path="url(#pc8c4460951)" style="fill: #99ccff; stroke: #99ccff"/>
    <path d="M 1004.958356 370.371053 
C 1010.584164 370.371053 1015.98031 368.135896 1019.958356 364.15785 
C 1023.936403 360.179803 1026.17156 354.783657 1026.17156 349.15785 
C 1026.17156 343.532042 1023.936403 338.135896 1019.958356 334.15785 
C 1015.98031 330.179803 1010.584164 327.944646 1004.958356 327.944646 
C 999.332549 327.944646 993.936403 330.179803 989.958356 334.15785 
C 985.98031 338.135896 983.745153 343.532042 983.745153 349.15785 
C 983.745153 354.783657 985.98031 360.179803 989.958356 364.15785 
C 993.936403 368.135896 999.332549 370.371053 1004.958356 370.371053 
z
" clip-path="url(#pc8c4460951)" style="fill: #99ccff; stroke: #99ccff"/>
    <path d="M 1004.958356 644.860523 
C 1010.093992 644.860523 1015.019977 642.820113 1018.65142 639.18867 
C 1022.282863 635.557227 1024.323273 630.631242 1024.323273 625.495606 
C 1024.323273 620.35997 1022.282863 615.433985 1018.65142 611.802542 
C 1015.019977 608.171099 1010.093992 606.130689 1004.958356 606.130689 
C 999.82272 606.130689 994.896735 608.171099 991.265292 611.802542 
C 987.633849 615.433985 985.593439 620.35997 985.593439 625.495606 
C 985.593439 630.631242 987.633849 635.557227 991.265292 639.18867 
C 994.896735 642.820113 999.82272 644.860523 1004.958356 644.860523 
z
" clip-path="url(#pc8c4460951)" style="fill: #d3d3d3; stroke: #d3d3d3"/>
    <path d="M 1004.958356 104.682698 
C 1010.093992 104.682698 1015.019977 102.642288 1018.65142 99.010845 
C 1022.282863 95.379402 1024.323273 90.453417 1024.323273 85.317781 
C 1024.323273 80.182145 1022.282863 75.25616 1018.65142 71.624717 
C 1015.019977 67.993274 1010.093992 65.952864 1004.958356 65.952864 
C 999.82272 65.952864 994.896735 67.993274 991.265292 71.624717 
C 987.633849 75.25616 985.593439 80.182145 985.593439 85.317781 
C 985.593439 90.453417 987.633849 95.379402 991.265292 99.010845 
C 994.896735 102.642288 999.82272 104.682698 1004.958356 104.682698 
z
" clip-path="url(#pc8c4460951)" style="fill: #d3d3d3; stroke: #d3d3d3"/>
    <path d="M 1004.958356 443.508891 
C 1010.093992 443.508891 1015.019977 441.468481 1018.65142 437.837038 
C 1022.282863 434.205595 1024.323273 429.27961 1024.323273 424.143975 
C 1024.323273 419.008339 1022.282863 414.082354 1018.65142 410.450911 
C 1015.019977 406.819468 1010.093992 404.779058 1004.958356 404.779058 
C 999.82272 404.779058 994.896735 406.819468 991.265292 410.450911 
C 987.633849 414.082354 985.593439 419.008339 985.593439 424.143975 
C 985.593439 429.27961 987.633849 434.205595 991.265292 437.837038 
C 994.896735 441.468481 999.82272 443.508891 1004.958356 443.508891 
z
" clip-path="url(#pc8c4460951)" style="fill: #d3d3d3; stroke: #d3d3d3"/>
    <path d="M 779.244554 812.884987 
C 784.380189 812.884987 789.306174 810.844578 792.937617 807.213135 
C 796.56906 803.581692 798.60947 798.655707 798.60947 793.520071 
C 798.60947 788.384435 796.56906 783.45845 792.937617 779.827007 
C 789.306174 776.195564 784.380189 774.155154 779.244554 774.155154 
C 774.108918 774.155154 769.182933 776.195564 765.55149 779.827007 
C 761.920047 783.45845 759.879637 788.384435 759.879637 793.520071 
C 759.879637 798.655707 761.920047 803.581692 765.55149 807.213135 
C 769.182933 810.844578 774.108918 812.884987 779.244554 812.884987 
z
" clip-path="url(#pc8c4460951)" style="fill: #d3d3d3; stroke: #d3d3d3"/>
    <path d="M 779.244554 372.609929 
C 785.464118 372.609929 791.429782 370.13887 795.827677 365.740974 
C 800.225573 361.343078 802.696632 355.377414 802.696632 349.15785 
C 802.696632 342.938286 800.225573 336.972622 795.827677 332.574726 
C 791.429782 328.17683 785.464118 325.705771 779.244554 325.705771 
C 773.02499 325.705771 767.059325 328.17683 762.66143 332.574726 
C 758.263534 336.972622 755.792475 342.938286 755.792475 349.15785 
C 755.792475 355.377414 758.263534 361.343078 762.66143 365.740974 
C 767.059325 370.13887 773.02499 372.609929 779.244554 372.609929 
z
" clip-path="url(#pc8c4460951)" style="fill: #ffcc00; stroke: #ffcc00"/>
    <path d="M 590.237072 542.023025 
C 596.456636 542.023025 602.4223 539.551966 606.820196 535.15407 
C 611.218091 530.756175 613.68915 524.79051 613.68915 518.570946 
C 613.68915 512.351382 611.218091 506.385718 606.820196 501.987823 
C 602.4223 497.589927 596.456636 495.118868 590.237072 495.118868 
C 584.017508 495.118868 578.051844 497.589927 573.653948 501.987823 
C 569.256052 506.385718 566.784993 512.351382 566.784993 518.570946 
C 566.784993 524.79051 569.256052 530.756175 573.653948 535.15407 
C 578.051844 539.551966 584.017508 542.023025 590.237072 542.023025 
z
" clip-path="url(#pc8c4460951)" style="fill: #ffcc00; stroke: #ffcc00"/>
    <path d="M 1231.758894 406.015829 
C 1236.89453 406.015829 1241.820515 403.975419 1245.451958 400.343976 
C 1249.083401 396.712533 1251.123811 391.786548 1251.123811 386.650912 
C 1251.123811 381.515276 1249.083401 376.589291 1245.451958 372.957848 
C 1241.820515 369.326405 1236.89453 367.285995 1231.758894 367.285995 
C 1226.623258 367.285995 1221.697273 369.326405 1218.06583 372.957848 
C 1214.434387 376.589291 1212.393977 381.515276 1212.393977 386.650912 
C 1212.393977 391.786548 1214.434387 396.712533 1218.06583 400.343976 
C 1221.697273 403.975419 1226.623258 406.015829 1231.758894 406.015829 
z
" clip-path="url(#pc8c4460951)" style="fill: #d3d3d3; stroke: #d3d3d3"/>
    <path d="M 1231.758894 481.001954 
C 1236.89453 481.001954 1241.820515 478.961544 1245.451958 475.330101 
C 1249.083401 471.698658 1251.123811 466.772673 1251.123811 461.637037 
C 1251.123811 456.501401 1249.083401 451.575416 1245.451958 447.943973 
C 1241.820515 444.31253 1236.89453 442.27212 1231.758894 442.27212 
C 1226.623258 442.27212 1221.697273 444.31253 1218.06583 447.943973 
C 1214.434387 451.575416 1212.393977 456.501401 1212.393977 461.637037 
C 1212.393977 466.772673 1214.434387 471.698658 1218.06583 475.330101 
C 1221.697273 478.961544 1226.623258 481.001954 1231.758894 481.001954 
z
" clip-path="url(#pc8c4460951)" style="fill: #d3d3d3; stroke: #d3d3d3"/>
    <path d="M 1489.304536 443.508891 
C 1494.440172 443.508891 1499.366157 441.468481 1502.9976 437.837038 
C 1506.629043 434.205595 1508.669453 429.27961 1508.669453 424.143975 
C 1508.669453 419.008339 1506.629043 414.082354 1502.9976 410.450911 
C 1499.366157 406.819468 1494.440172 404.779058 1489.304536 404.779058 
C 1484.1689 404.779058 1479.242915 406.819468 1475.611472 410.450911 
C 1471.980029 414.082354 1469.939619 419.008339 1469.939619 424.143975 
C 1469.939619 429.27961 1471.980029 434.205595 1475.611472 437.837038 
C 1479.242915 441.468481 1484.1689 443.508891 1489.304536 443.508891 
z
" clip-path="url(#pc8c4460951)" style="fill: #d3d3d3; stroke: #d3d3d3"/>
    <path d="M 115.028961 225.493677 
C 120.164597 225.493677 125.090582 223.453267 128.722025 219.821824 
C 132.353468 216.190381 134.393878 211.264396 134.393878 206.12876 
C 134.393878 200.993124 132.353468 196.067139 128.722025 192.435696 
C 125.090582 188.804253 120.164597 186.763843 115.028961 186.763843 
C 109.893325 186.763843 104.96734 188.804253 101.335897 192.435696 
C 97.704454 196.067139 95.664045 200.993124 95.664045 206.12876 
C 95.664045 211.264396 97.704454 216.190381 101.335897 219.821824 
C 104.96734 223.453267 109.893325 225.493677 115.028961 225.493677 
z
" clip-path="url(#pc8c4460951)" style="fill: #d3d3d3; stroke: #d3d3d3"/>
   </g>
   <g id="text_1">
    <g clip-path="url(#pc8c4460951)">
     <!-- VPN_PC -->
     <g transform="translate(276.750323 287.812812) scale(0.1 -0.1)">
      <defs>
       <path id="DejaVuSans-56" d="M 1831 0 
L 50 4666 
L 709 4666 
L 2188 738 
L 3669 4666 
L 4325 4666 
L 2547 0 
L 1831 0 
z
" transform="scale(0.015625)"/>
       <path id="DejaVuSans-50" d="M 1259 4147 
L 1259 2394 
L 2053 2394 
Q 2494 2394 2734 2622 
Q 2975 2850 2975 3272 
Q 2975 3691 2734 3919 
Q 2494 4147 2053 4147 
L 1259 4147 
z
M 628 4666 
L 2053 4666 
Q 2838 4666 3239 4311 
Q 3641 3956 3641 3272 
Q 3641 2581 3239 2228 
Q 2838 1875 2053 1875 
L 1259 1875 
L 1259 0 
L 628 0 
L 628 4666 
z
" transform="scale(0.015625)"/>
       <path id="DejaVuSans-4e" d="M 628 4666 
L 1478 4666 
L 3547 763 
L 3547 4666 
L 4159 4666 
L 4159 0 
L 3309 0 
L 1241 3903 
L 1241 0 
L 628 0 
L 628 4666 
z
" transform="scale(0.015625)"/>
       <path id="DejaVuSans-5f" d="M 3263 -1063 
L 3263 -1509 
L -63 -1509 
L -63 -1063 
L 3263 -1063 
z
" transform="scale(0.015625)"/>
       <path id="DejaVuSans-43" d="M 4122 4306 
L 4122 3641 
Q 3803 3938 3442 4084 
Q 3081 4231 2675 4231 
Q 1875 4231 1450 3742 
Q 1025 3253 1025 2328 
Q 1025 1406 1450 917 
Q 1875 428 2675 428 
Q 3081 428 3442 575 
Q 3803 722 4122 1019 
L 4122 359 
Q 3791 134 3420 21 
Q 3050 -91 2638 -91 
Q 1578 -91 968 557 
Q 359 1206 359 2328 
Q 359 3453 968 4101 
Q 1578 4750 2638 4750 
Q 3056 4750 3426 4639 
Q 3797 4528 4122 4306 
z
" transform="scale(0.015625)"/>
      </defs>
      <use xlink:href="#DejaVuSans-56"/>
      <use xlink:href="#DejaVuSans-50" transform="translate(68.408203 0)"/>
      <use xlink:href="#DejaVuSans-4e" transform="translate(128.710938 0)"/>
      <use xlink:href="#DejaVuSans-5f" transform="translate(203.515625 0)"/>
      <use xlink:href="#DejaVuSans-50" transform="translate(253.515625 0)"/>
      <use xlink:href="#DejaVuSans-43" transform="translate(313.818359 0)"/>
     </g>
    </g>
   </g>
   <g id="text_2">
    <g clip-path="url(#pc8c4460951)">
     <!-- OA_PC -->
     <g transform="translate(279.657355 129.50877) scale(0.1 -0.1)">
      <defs>
       <path id="DejaVuSans-4f" d="M 2522 4238 
Q 1834 4238 1429 3725 
Q 1025 3213 1025 2328 
Q 1025 1447 1429 934 
Q 1834 422 2522 422 
Q 3209 422 3611 934 
Q 4013 1447 4013 2328 
Q 4013 3213 3611 3725 
Q 3209 4238 2522 4238 
z
M 2522 4750 
Q 3503 4750 4090 4092 
Q 4678 3434 4678 2328 
Q 4678 1225 4090 567 
Q 3503 -91 2522 -91 
Q 1538 -91 948 565 
Q 359 1222 359 2328 
Q 359 3434 948 4092 
Q 1538 4750 2522 4750 
z
" transform="scale(0.015625)"/>
       <path id="DejaVuSans-41" d="M 2188 4044 
L 1331 1722 
L 3047 1722 
L 2188 4044 
z
M 1831 4666 
L 2547 4666 
L 4325 0 
L 3669 0 
L 3244 1197 
L 1141 1197 
L 716 0 
L 50 0 
L 1831 4666 
z
" transform="scale(0.015625)"/>
      </defs>
      <use xlink:href="#DejaVuSans-4f"/>
      <use xlink:href="#DejaVuSans-41" transform="translate(76.960938 0)"/>
      <use xlink:href="#DejaVuSans-5f" transform="translate(145.369141 0)"/>
      <use xlink:href="#DejaVuSans-50" transform="translate(195.369141 0)"/>
      <use xlink:href="#DejaVuSans-43" transform="translate(255.671875 0)"/>
     </g>
    </g>
   </g>
   <g id="text_3">
    <g clip-path="url(#pc8c4460951)">
     <!-- OA_VDI -->
     <g transform="translate(277.418292 208.660791) scale(0.1 -0.1)">
      <defs>
       <path id="DejaVuSans-44" d="M 1259 4147 
L 1259 519 
L 2022 519 
Q 2988 519 3436 956 
Q 3884 1394 3884 2338 
Q 3884 3275 3436 3711 
Q 2988 4147 2022 4147 
L 1259 4147 
z
M 628 4666 
L 1925 4666 
Q 3281 4666 3915 4102 
Q 4550 3538 4550 2338 
Q 4550 1131 3912 565 
Q 3275 0 1925 0 
L 628 0 
L 628 4666 
z
" transform="scale(0.015625)"/>
       <path id="DejaVuSans-49" d="M 628 4666 
L 1259 4666 
L 1259 0 
L 628 0 
L 628 4666 
z
" transform="scale(0.015625)"/>
      </defs>
      <use xlink:href="#DejaVuSans-4f"/>
      <use xlink:href="#DejaVuSans-41" transform="translate(76.960938 0)"/>
      <use xlink:href="#DejaVuSans-5f" transform="translate(145.369141 0)"/>
      <use xlink:href="#DejaVuSans-56" transform="translate(195.369141 0)"/>
      <use xlink:href="#DejaVuSans-44" transform="translate(263.777344 0)"/>
      <use xlink:href="#DejaVuSans-49" transform="translate(340.779297 0)"/>
     </g>
    </g>
   </g>
   <g id="text_4">
    <g clip-path="url(#pc8c4460951)">
     <!-- Firstfloor_PC -->
     <g transform="translate(265.080011 389.271225) scale(0.1 -0.1)">
      <defs>
       <path id="DejaVuSans-46" d="M 628 4666 
L 3309 4666 
L 3309 4134 
L 1259 4134 
L 1259 2759 
L 3109 2759 
L 3109 2228 
L 1259 2228 
L 1259 0 
L 628 0 
L 628 4666 
z
" transform="scale(0.015625)"/>
       <path id="DejaVuSans-69" d="M 603 3500 
L 1178 3500 
L 1178 0 
L 603 0 
L 603 3500 
z
M 603 4863 
L 1178 4863 
L 1178 4134 
L 603 4134 
L 603 4863 
z
" transform="scale(0.015625)"/>
       <path id="DejaVuSans-72" d="M 2631 2963 
Q 2534 3019 2420 3045 
Q 2306 3072 2169 3072 
Q 1681 3072 1420 2755 
Q 1159 2438 1159 1844 
L 1159 0 
L 581 0 
L 581 3500 
L 1159 3500 
L 1159 2956 
Q 1341 3275 1631 3429 
Q 1922 3584 2338 3584 
Q 2397 3584 2469 3576 
Q 2541 3569 2628 3553 
L 2631 2963 
z
" transform="scale(0.015625)"/>
       <path id="DejaVuSans-73" d="M 2834 3397 
L 2834 2853 
Q 2591 2978 2328 3040 
Q 2066 3103 1784 3103 
Q 1356 3103 1142 2972 
Q 928 2841 928 2578 
Q 928 2378 1081 2264 
Q 1234 2150 1697 2047 
L 1894 2003 
Q 2506 1872 2764 1633 
Q 3022 1394 3022 966 
Q 3022 478 2636 193 
Q 2250 -91 1575 -91 
Q 1294 -91 989 -36 
Q 684 19 347 128 
L 347 722 
Q 666 556 975 473 
Q 1284 391 1588 391 
Q 1994 391 2212 530 
Q 2431 669 2431 922 
Q 2431 1156 2273 1281 
Q 2116 1406 1581 1522 
L 1381 1569 
Q 847 1681 609 1914 
Q 372 2147 372 2553 
Q 372 3047 722 3315 
Q 1072 3584 1716 3584 
Q 2034 3584 2315 3537 
Q 2597 3491 2834 3397 
z
" transform="scale(0.015625)"/>
       <path id="DejaVuSans-74" d="M 1172 4494 
L 1172 3500 
L 2356 3500 
L 2356 3053 
L 1172 3053 
L 1172 1153 
Q 1172 725 1289 603 
Q 1406 481 1766 481 
L 2356 481 
L 2356 0 
L 1766 0 
Q 1100 0 847 248 
Q 594 497 594 1153 
L 594 3053 
L 172 3053 
L 172 3500 
L 594 3500 
L 594 4494 
L 1172 4494 
z
" transform="scale(0.015625)"/>
       <path id="DejaVuSans-66" d="M 2375 4863 
L 2375 4384 
L 1825 4384 
Q 1516 4384 1395 4259 
Q 1275 4134 1275 3809 
L 1275 3500 
L 2222 3500 
L 2222 3053 
L 1275 3053 
L 1275 0 
L 697 0 
L 697 3053 
L 147 3053 
L 147 3500 
L 697 3500 
L 697 3744 
Q 697 4328 969 4595 
Q 1241 4863 1831 4863 
L 2375 4863 
z
" transform="scale(0.015625)"/>
       <path id="DejaVuSans-6c" d="M 603 4863 
L 1178 4863 
L 1178 0 
L 603 0 
L 603 4863 
z
" transform="scale(0.015625)"/>
       <path id="DejaVuSans-6f" d="M 1959 3097 
Q 1497 3097 1228 2736 
Q 959 2375 959 1747 
Q 959 1119 1226 758 
Q 1494 397 1959 397 
Q 2419 397 2687 759 
Q 2956 1122 2956 1747 
Q 2956 2369 2687 2733 
Q 2419 3097 1959 3097 
z
M 1959 3584 
Q 2709 3584 3137 3096 
Q 3566 2609 3566 1747 
Q 3566 888 3137 398 
Q 2709 -91 1959 -91 
Q 1206 -91 779 398 
Q 353 888 353 1747 
Q 353 2609 779 3096 
Q 1206 3584 1959 3584 
z
" transform="scale(0.015625)"/>
      </defs>
      <use xlink:href="#DejaVuSans-46"/>
      <use xlink:href="#DejaVuSans-69" transform="translate(50.269531 0)"/>
      <use xlink:href="#DejaVuSans-72" transform="translate(78.052734 0)"/>
      <use xlink:href="#DejaVuSans-73" transform="translate(119.166016 0)"/>
      <use xlink:href="#DejaVuSans-74" transform="translate(171.265625 0)"/>
      <use xlink:href="#DejaVuSans-66" transform="translate(210.474609 0)"/>
      <use xlink:href="#DejaVuSans-6c" transform="translate(245.679688 0)"/>
      <use xlink:href="#DejaVuSans-6f" transform="translate(273.462891 0)"/>
      <use xlink:href="#DejaVuSans-6f" transform="translate(334.644531 0)"/>
      <use xlink:href="#DejaVuSans-72" transform="translate(395.826172 0)"/>
      <use xlink:href="#DejaVuSans-5f" transform="translate(436.939453 0)"/>
      <use xlink:href="#DejaVuSans-50" transform="translate(486.939453 0)"/>
      <use xlink:href="#DejaVuSans-43" transform="translate(547.242188 0)"/>
     </g>
    </g>
   </g>
   <g id="text_5">
    <g clip-path="url(#pc8c4460951)">
     <!-- SAC_SSM -->
     <g transform="translate(430.897841 351.689881) scale(0.1 -0.1)">
      <defs>
       <path id="DejaVuSans-53" d="M 3425 4513 
L 3425 3897 
Q 3066 4069 2747 4153 
Q 2428 4238 2131 4238 
Q 1616 4238 1336 4038 
Q 1056 3838 1056 3469 
Q 1056 3159 1242 3001 
Q 1428 2844 1947 2747 
L 2328 2669 
Q 3034 2534 3370 2195 
Q 3706 1856 3706 1288 
Q 3706 609 3251 259 
Q 2797 -91 1919 -91 
Q 1588 -91 1214 -16 
Q 841 59 441 206 
L 441 856 
Q 825 641 1194 531 
Q 1563 422 1919 422 
Q 2459 422 2753 634 
Q 3047 847 3047 1241 
Q 3047 1584 2836 1778 
Q 2625 1972 2144 2069 
L 1759 2144 
Q 1053 2284 737 2584 
Q 422 2884 422 3419 
Q 422 4038 858 4394 
Q 1294 4750 2059 4750 
Q 2388 4750 2728 4690 
Q 3069 4631 3425 4513 
z
" transform="scale(0.015625)"/>
       <path id="DejaVuSans-4d" d="M 628 4666 
L 1569 4666 
L 2759 1491 
L 3956 4666 
L 4897 4666 
L 4897 0 
L 4281 0 
L 4281 4097 
L 3078 897 
L 2444 897 
L 1241 4097 
L 1241 0 
L 628 0 
L 628 4666 
z
" transform="scale(0.015625)"/>
      </defs>
      <use xlink:href="#DejaVuSans-53"/>
      <use xlink:href="#DejaVuSans-41" transform="translate(65.351562 0)"/>
      <use xlink:href="#DejaVuSans-43" transform="translate(132.009766 0)"/>
      <use xlink:href="#DejaVuSans-5f" transform="translate(201.833984 0)"/>
      <use xlink:href="#DejaVuSans-53" transform="translate(251.833984 0)"/>
      <use xlink:href="#DejaVuSans-53" transform="translate(315.310547 0)"/>
      <use xlink:href="#DejaVuSans-4d" transform="translate(378.787109 0)"/>
     </g>
    </g>
   </g>
   <g id="text_6">
    <g clip-path="url(#pc8c4460951)">
     <!-- Vaccine -->
     <g transform="translate(985.728669 501.889474) scale(0.1 -0.1)">
      <defs>
       <path id="DejaVuSans-61" d="M 2194 1759 
Q 1497 1759 1228 1600 
Q 959 1441 959 1056 
Q 959 750 1161 570 
Q 1363 391 1709 391 
Q 2188 391 2477 730 
Q 2766 1069 2766 1631 
L 2766 1759 
L 2194 1759 
z
M 3341 1997 
L 3341 0 
L 2766 0 
L 2766 531 
Q 2569 213 2275 61 
Q 1981 -91 1556 -91 
Q 1019 -91 701 211 
Q 384 513 384 1019 
Q 384 1609 779 1909 
Q 1175 2209 1959 2209 
L 2766 2209 
L 2766 2266 
Q 2766 2663 2505 2880 
Q 2244 3097 1772 3097 
Q 1472 3097 1187 3025 
Q 903 2953 641 2809 
L 641 3341 
Q 956 3463 1253 3523 
Q 1550 3584 1831 3584 
Q 2591 3584 2966 3190 
Q 3341 2797 3341 1997 
z
" transform="scale(0.015625)"/>
       <path id="DejaVuSans-63" d="M 3122 3366 
L 3122 2828 
Q 2878 2963 2633 3030 
Q 2388 3097 2138 3097 
Q 1578 3097 1268 2742 
Q 959 2388 959 1747 
Q 959 1106 1268 751 
Q 1578 397 2138 397 
Q 2388 397 2633 464 
Q 2878 531 3122 666 
L 3122 134 
Q 2881 22 2623 -34 
Q 2366 -91 2075 -91 
Q 1284 -91 818 406 
Q 353 903 353 1747 
Q 353 2603 823 3093 
Q 1294 3584 2113 3584 
Q 2378 3584 2631 3529 
Q 2884 3475 3122 3366 
z
" transform="scale(0.015625)"/>
       <path id="DejaVuSans-6e" d="M 3513 2113 
L 3513 0 
L 2938 0 
L 2938 2094 
Q 2938 2591 2744 2837 
Q 2550 3084 2163 3084 
Q 1697 3084 1428 2787 
Q 1159 2491 1159 1978 
L 1159 0 
L 581 0 
L 581 3500 
L 1159 3500 
L 1159 2956 
Q 1366 3272 1645 3428 
Q 1925 3584 2291 3584 
Q 2894 3584 3203 3211 
Q 3513 2838 3513 2113 
z
" transform="scale(0.015625)"/>
       <path id="DejaVuSans-65" d="M 3597 1894 
L 3597 1613 
L 953 1613 
Q 991 1019 1311 708 
Q 1631 397 2203 397 
Q 2534 397 2845 478 
Q 3156 559 3463 722 
L 3463 178 
Q 3153 47 2828 -22 
Q 2503 -91 2169 -91 
Q 1331 -91 842 396 
Q 353 884 353 1716 
Q 353 2575 817 3079 
Q 1281 3584 2069 3584 
Q 2775 3584 3186 3129 
Q 3597 2675 3597 1894 
z
M 3022 2063 
Q 3016 2534 2758 2815 
Q 2500 3097 2075 3097 
Q 1594 3097 1305 2825 
Q 1016 2553 972 2059 
L 3022 2063 
z
" transform="scale(0.015625)"/>
      </defs>
      <use xlink:href="#DejaVuSans-56"/>
      <use xlink:href="#DejaVuSans-61" transform="translate(60.658203 0)"/>
      <use xlink:href="#DejaVuSans-63" transform="translate(121.9375 0)"/>
      <use xlink:href="#DejaVuSans-63" transform="translate(176.917969 0)"/>
      <use xlink:href="#DejaVuSans-69" transform="translate(231.898438 0)"/>
      <use xlink:href="#DejaVuSans-6e" transform="translate(259.681641 0)"/>
      <use xlink:href="#DejaVuSans-65" transform="translate(323.060547 0)"/>
     </g>
    </g>
   </g>
   <g id="text_7">
    <g clip-path="url(#pc8c4460951)">
     <!-- SCCM -->
     <g transform="translate(990.487262 351.917225) scale(0.1 -0.1)">
      <use xlink:href="#DejaVuSans-53"/>
      <use xlink:href="#DejaVuSans-43" transform="translate(63.476562 0)"/>
      <use xlink:href="#DejaVuSans-43" transform="translate(133.300781 0)"/>
      <use xlink:href="#DejaVuSans-4d" transform="translate(203.125 0)"/>
     </g>
    </g>
   </g>
   <g id="text_8">
    <g clip-path="url(#pc8c4460951)">
     <!-- DRM -->
     <g transform="translate(993.320075 628.254981) scale(0.1 -0.1)">
      <defs>
       <path id="DejaVuSans-52" d="M 2841 2188 
Q 3044 2119 3236 1894 
Q 3428 1669 3622 1275 
L 4263 0 
L 3584 0 
L 2988 1197 
Q 2756 1666 2539 1819 
Q 2322 1972 1947 1972 
L 1259 1972 
L 1259 0 
L 628 0 
L 628 4666 
L 2053 4666 
Q 2853 4666 3247 4331 
Q 3641 3997 3641 3322 
Q 3641 2881 3436 2590 
Q 3231 2300 2841 2188 
z
M 1259 4147 
L 1259 2491 
L 2053 2491 
Q 2509 2491 2742 2702 
Q 2975 2913 2975 3322 
Q 2975 3731 2742 3939 
Q 2509 4147 2053 4147 
L 1259 4147 
z
" transform="scale(0.015625)"/>
      </defs>
      <use xlink:href="#DejaVuSans-44"/>
      <use xlink:href="#DejaVuSans-52" transform="translate(77.001953 0)"/>
      <use xlink:href="#DejaVuSans-4d" transform="translate(146.484375 0)"/>
     </g>
    </g>
   </g>
   <g id="text_9">
    <g clip-path="url(#pc8c4460951)">
     <!-- PC_Proxy -->
     <g transform="translate(982.259919 87.849812) scale(0.1 -0.1)">
      <defs>
       <path id="DejaVuSans-78" d="M 3513 3500 
L 2247 1797 
L 3578 0 
L 2900 0 
L 1881 1375 
L 863 0 
L 184 0 
L 1544 1831 
L 300 3500 
L 978 3500 
L 1906 2253 
L 2834 3500 
L 3513 3500 
z
" transform="scale(0.015625)"/>
       <path id="DejaVuSans-79" d="M 2059 -325 
Q 1816 -950 1584 -1140 
Q 1353 -1331 966 -1331 
L 506 -1331 
L 506 -850 
L 844 -850 
Q 1081 -850 1212 -737 
Q 1344 -625 1503 -206 
L 1606 56 
L 191 3500 
L 800 3500 
L 1894 763 
L 2988 3500 
L 3597 3500 
L 2059 -325 
z
" transform="scale(0.015625)"/>
      </defs>
      <use xlink:href="#DejaVuSans-50"/>
      <use xlink:href="#DejaVuSans-43" transform="translate(60.302734 0)"/>
      <use xlink:href="#DejaVuSans-5f" transform="translate(130.126953 0)"/>
      <use xlink:href="#DejaVuSans-50" transform="translate(180.126953 0)"/>
      <use xlink:href="#DejaVuSans-72" transform="translate(238.679688 0)"/>
      <use xlink:href="#DejaVuSans-6f" transform="translate(277.542969 0)"/>
      <use xlink:href="#DejaVuSans-78" transform="translate(335.599609 0)"/>
      <use xlink:href="#DejaVuSans-79" transform="translate(394.779297 0)"/>
     </g>
    </g>
   </g>
   <g id="text_10">
    <g clip-path="url(#pc8c4460951)">
     <!-- Active_Directory -->
     <g transform="translate(963.948981 426.764287) scale(0.1 -0.1)">
      <defs>
       <path id="DejaVuSans-76" d="M 191 3500 
L 800 3500 
L 1894 563 
L 2988 3500 
L 3597 3500 
L 2284 0 
L 1503 0 
L 191 3500 
z
" transform="scale(0.015625)"/>
      </defs>
      <use xlink:href="#DejaVuSans-41"/>
      <use xlink:href="#DejaVuSans-63" transform="translate(66.658203 0)"/>
      <use xlink:href="#DejaVuSans-74" transform="translate(121.638672 0)"/>
      <use xlink:href="#DejaVuSans-69" transform="translate(160.847656 0)"/>
      <use xlink:href="#DejaVuSans-76" transform="translate(188.630859 0)"/>
      <use xlink:href="#DejaVuSans-65" transform="translate(247.810547 0)"/>
      <use xlink:href="#DejaVuSans-5f" transform="translate(309.333984 0)"/>
      <use xlink:href="#DejaVuSans-44" transform="translate(359.333984 0)"/>
      <use xlink:href="#DejaVuSans-69" transform="translate(436.335938 0)"/>
      <use xlink:href="#DejaVuSans-72" transform="translate(464.119141 0)"/>
      <use xlink:href="#DejaVuSans-65" transform="translate(502.982422 0)"/>
      <use xlink:href="#DejaVuSans-63" transform="translate(564.505859 0)"/>
      <use xlink:href="#DejaVuSans-74" transform="translate(619.486328 0)"/>
      <use xlink:href="#DejaVuSans-6f" transform="translate(658.695312 0)"/>
      <use xlink:href="#DejaVuSans-72" transform="translate(719.876953 0)"/>
      <use xlink:href="#DejaVuSans-79" transform="translate(760.990234 0)"/>
     </g>
    </g>
   </g>
   <g id="text_11">
    <g clip-path="url(#pc8c4460951)">
     <!-- VDI -->
     <g transform="translate(770.499241 796.279446) scale(0.1 -0.1)">
      <use xlink:href="#DejaVuSans-56"/>
      <use xlink:href="#DejaVuSans-44" transform="translate(68.408203 0)"/>
      <use xlink:href="#DejaVuSans-49" transform="translate(145.410156 0)"/>
     </g>
    </g>
   </g>
   <g id="text_12">
    <g clip-path="url(#pc8c4460951)">
     <!-- Intranet_MGMT_Server -->
     <g transform="translate(722.361741 351.689881) scale(0.1 -0.1)">
      <defs>
       <path id="DejaVuSans-47" d="M 3809 666 
L 3809 1919 
L 2778 1919 
L 2778 2438 
L 4434 2438 
L 4434 434 
Q 4069 175 3628 42 
Q 3188 -91 2688 -91 
Q 1594 -91 976 548 
Q 359 1188 359 2328 
Q 359 3472 976 4111 
Q 1594 4750 2688 4750 
Q 3144 4750 3555 4637 
Q 3966 4525 4313 4306 
L 4313 3634 
Q 3963 3931 3569 4081 
Q 3175 4231 2741 4231 
Q 1884 4231 1454 3753 
Q 1025 3275 1025 2328 
Q 1025 1384 1454 906 
Q 1884 428 2741 428 
Q 3075 428 3337 486 
Q 3600 544 3809 666 
z
" transform="scale(0.015625)"/>
       <path id="DejaVuSans-54" d="M -19 4666 
L 3928 4666 
L 3928 4134 
L 2272 4134 
L 2272 0 
L 1638 0 
L 1638 4134 
L -19 4134 
L -19 4666 
z
" transform="scale(0.015625)"/>
      </defs>
      <use xlink:href="#DejaVuSans-49"/>
      <use xlink:href="#DejaVuSans-6e" transform="translate(29.492188 0)"/>
      <use xlink:href="#DejaVuSans-74" transform="translate(92.871094 0)"/>
      <use xlink:href="#DejaVuSans-72" transform="translate(132.080078 0)"/>
      <use xlink:href="#DejaVuSans-61" transform="translate(173.193359 0)"/>
      <use xlink:href="#DejaVuSans-6e" transform="translate(234.472656 0)"/>
      <use xlink:href="#DejaVuSans-65" transform="translate(297.851562 0)"/>
      <use xlink:href="#DejaVuSans-74" transform="translate(359.375 0)"/>
      <use xlink:href="#DejaVuSans-5f" transform="translate(398.583984 0)"/>
      <use xlink:href="#DejaVuSans-4d" transform="translate(448.583984 0)"/>
      <use xlink:href="#DejaVuSans-47" transform="translate(534.863281 0)"/>
      <use xlink:href="#DejaVuSans-4d" transform="translate(612.353516 0)"/>
      <use xlink:href="#DejaVuSans-54" transform="translate(698.632812 0)"/>
      <use xlink:href="#DejaVuSans-5f" transform="translate(759.716797 0)"/>
      <use xlink:href="#DejaVuSans-53" transform="translate(809.716797 0)"/>
      <use xlink:href="#DejaVuSans-65" transform="translate(873.193359 0)"/>
      <use xlink:href="#DejaVuSans-72" transform="translate(934.716797 0)"/>
      <use xlink:href="#DejaVuSans-76" transform="translate(975.830078 0)"/>
      <use xlink:href="#DejaVuSans-65" transform="translate(1035.009766 0)"/>
      <use xlink:href="#DejaVuSans-72" transform="translate(1096.533203 0)"/>
     </g>
    </g>
   </g>
   <g id="text_13">
    <g clip-path="url(#pc8c4460951)">
     <!-- Nutanix -->
     <g transform="translate(570.78629 521.330321) scale(0.1 -0.1)">
      <defs>
       <path id="DejaVuSans-75" d="M 544 1381 
L 544 3500 
L 1119 3500 
L 1119 1403 
Q 1119 906 1312 657 
Q 1506 409 1894 409 
Q 2359 409 2629 706 
Q 2900 1003 2900 1516 
L 2900 3500 
L 3475 3500 
L 3475 0 
L 2900 0 
L 2900 538 
Q 2691 219 2414 64 
Q 2138 -91 1772 -91 
Q 1169 -91 856 284 
Q 544 659 544 1381 
z
M 1991 3584 
L 1991 3584 
z
" transform="scale(0.015625)"/>
      </defs>
      <use xlink:href="#DejaVuSans-4e"/>
      <use xlink:href="#DejaVuSans-75" transform="translate(74.804688 0)"/>
      <use xlink:href="#DejaVuSans-74" transform="translate(138.183594 0)"/>
      <use xlink:href="#DejaVuSans-61" transform="translate(177.392578 0)"/>
      <use xlink:href="#DejaVuSans-6e" transform="translate(238.671875 0)"/>
      <use xlink:href="#DejaVuSans-69" transform="translate(302.050781 0)"/>
      <use xlink:href="#DejaVuSans-78" transform="translate(329.833984 0)"/>
     </g>
    </g>
   </g>
   <g id="text_14">
    <g clip-path="url(#pc8c4460951)">
     <!-- ALL_OA_PC -->
     <g transform="translate(1203.991706 389.182943) scale(0.1 -0.1)">
      <defs>
       <path id="DejaVuSans-4c" d="M 628 4666 
L 1259 4666 
L 1259 531 
L 3531 531 
L 3531 0 
L 628 0 
L 628 4666 
z
" transform="scale(0.015625)"/>
      </defs>
      <use xlink:href="#DejaVuSans-41"/>
      <use xlink:href="#DejaVuSans-4c" transform="translate(68.408203 0)"/>
      <use xlink:href="#DejaVuSans-4c" transform="translate(124.121094 0)"/>
      <use xlink:href="#DejaVuSans-5f" transform="translate(179.833984 0)"/>
      <use xlink:href="#DejaVuSans-4f" transform="translate(229.833984 0)"/>
      <use xlink:href="#DejaVuSans-41" transform="translate(306.794922 0)"/>
      <use xlink:href="#DejaVuSans-5f" transform="translate(375.203125 0)"/>
      <use xlink:href="#DejaVuSans-50" transform="translate(425.203125 0)"/>
      <use xlink:href="#DejaVuSans-43" transform="translate(485.505859 0)"/>
     </g>
    </g>
   </g>
   <g id="text_15">
    <g clip-path="url(#pc8c4460951)">
     <!-- ALL_VDI_Cloud_Proxy -->
     <g transform="translate(1178.546394 464.257349) scale(0.1 -0.1)">
      <defs>
       <path id="DejaVuSans-64" d="M 2906 2969 
L 2906 4863 
L 3481 4863 
L 3481 0 
L 2906 0 
L 2906 525 
Q 2725 213 2448 61 
Q 2172 -91 1784 -91 
Q 1150 -91 751 415 
Q 353 922 353 1747 
Q 353 2572 751 3078 
Q 1150 3584 1784 3584 
Q 2172 3584 2448 3432 
Q 2725 3281 2906 2969 
z
M 947 1747 
Q 947 1113 1208 752 
Q 1469 391 1925 391 
Q 2381 391 2643 752 
Q 2906 1113 2906 1747 
Q 2906 2381 2643 2742 
Q 2381 3103 1925 3103 
Q 1469 3103 1208 2742 
Q 947 2381 947 1747 
z
" transform="scale(0.015625)"/>
      </defs>
      <use xlink:href="#DejaVuSans-41"/>
      <use xlink:href="#DejaVuSans-4c" transform="translate(68.408203 0)"/>
      <use xlink:href="#DejaVuSans-4c" transform="translate(124.121094 0)"/>
      <use xlink:href="#DejaVuSans-5f" transform="translate(179.833984 0)"/>
      <use xlink:href="#DejaVuSans-56" transform="translate(229.833984 0)"/>
      <use xlink:href="#DejaVuSans-44" transform="translate(298.242188 0)"/>
      <use xlink:href="#DejaVuSans-49" transform="translate(375.244141 0)"/>
      <use xlink:href="#DejaVuSans-5f" transform="translate(404.736328 0)"/>
      <use xlink:href="#DejaVuSans-43" transform="translate(454.736328 0)"/>
      <use xlink:href="#DejaVuSans-6c" transform="translate(524.560547 0)"/>
      <use xlink:href="#DejaVuSans-6f" transform="translate(552.34375 0)"/>
      <use xlink:href="#DejaVuSans-75" transform="translate(613.525391 0)"/>
      <use xlink:href="#DejaVuSans-64" transform="translate(676.904297 0)"/>
      <use xlink:href="#DejaVuSans-5f" transform="translate(740.380859 0)"/>
      <use xlink:href="#DejaVuSans-50" transform="translate(790.380859 0)"/>
      <use xlink:href="#DejaVuSans-72" transform="translate(848.933594 0)"/>
      <use xlink:href="#DejaVuSans-6f" transform="translate(887.796875 0)"/>
      <use xlink:href="#DejaVuSans-78" transform="translate(945.853516 0)"/>
      <use xlink:href="#DejaVuSans-79" transform="translate(1005.033203 0)"/>
     </g>
    </g>
   </g>
   <g id="text_16">
    <g clip-path="url(#pc8c4460951)">
     <!-- Hacker_Internet_forLeak -->
     <g transform="translate(1428.421724 426.764287) scale(0.1 -0.1)">
      <defs>
       <path id="DejaVuSans-48" d="M 628 4666 
L 1259 4666 
L 1259 2753 
L 3553 2753 
L 3553 4666 
L 4184 4666 
L 4184 0 
L 3553 0 
L 3553 2222 
L 1259 2222 
L 1259 0 
L 628 0 
L 628 4666 
z
" transform="scale(0.015625)"/>
       <path id="DejaVuSans-6b" d="M 581 4863 
L 1159 4863 
L 1159 1991 
L 2875 3500 
L 3609 3500 
L 1753 1863 
L 3688 0 
L 2938 0 
L 1159 1709 
L 1159 0 
L 581 0 
L 581 4863 
z
" transform="scale(0.015625)"/>
      </defs>
      <use xlink:href="#DejaVuSans-48"/>
      <use xlink:href="#DejaVuSans-61" transform="translate(75.195312 0)"/>
      <use xlink:href="#DejaVuSans-63" transform="translate(136.474609 0)"/>
      <use xlink:href="#DejaVuSans-6b" transform="translate(191.455078 0)"/>
      <use xlink:href="#DejaVuSans-65" transform="translate(245.740234 0)"/>
      <use xlink:href="#DejaVuSans-72" transform="translate(307.263672 0)"/>
      <use xlink:href="#DejaVuSans-5f" transform="translate(348.376953 0)"/>
      <use xlink:href="#DejaVuSans-49" transform="translate(398.376953 0)"/>
      <use xlink:href="#DejaVuSans-6e" transform="translate(427.869141 0)"/>
      <use xlink:href="#DejaVuSans-74" transform="translate(491.248047 0)"/>
      <use xlink:href="#DejaVuSans-65" transform="translate(530.457031 0)"/>
      <use xlink:href="#DejaVuSans-72" transform="translate(591.980469 0)"/>
      <use xlink:href="#DejaVuSans-6e" transform="translate(631.34375 0)"/>
      <use xlink:href="#DejaVuSans-65" transform="translate(694.722656 0)"/>
      <use xlink:href="#DejaVuSans-74" transform="translate(756.246094 0)"/>
      <use xlink:href="#DejaVuSans-5f" transform="translate(795.455078 0)"/>
      <use xlink:href="#DejaVuSans-66" transform="translate(845.455078 0)"/>
      <use xlink:href="#DejaVuSans-6f" transform="translate(880.660156 0)"/>
      <use xlink:href="#DejaVuSans-72" transform="translate(941.841797 0)"/>
      <use xlink:href="#DejaVuSans-4c" transform="translate(982.955078 0)"/>
      <use xlink:href="#DejaVuSans-65" transform="translate(1036.917969 0)"/>
      <use xlink:href="#DejaVuSans-61" transform="translate(1098.441406 0)"/>
      <use xlink:href="#DejaVuSans-6b" transform="translate(1159.720703 0)"/>
     </g>
    </g>
   </g>
   <g id="text_17">
    <g clip-path="url(#pc8c4460951)">
     <!-- Hacker_Attacker -->
     <g transform="translate(74.19693 208.749072) scale(0.1 -0.1)">
      <use xlink:href="#DejaVuSans-48"/>
      <use xlink:href="#DejaVuSans-61" transform="translate(75.195312 0)"/>
      <use xlink:href="#DejaVuSans-63" transform="translate(136.474609 0)"/>
      <use xlink:href="#DejaVuSans-6b" transform="translate(191.455078 0)"/>
      <use xlink:href="#DejaVuSans-65" transform="translate(245.740234 0)"/>
      <use xlink:href="#DejaVuSans-72" transform="translate(307.263672 0)"/>
      <use xlink:href="#DejaVuSans-5f" transform="translate(348.376953 0)"/>
      <use xlink:href="#DejaVuSans-41" transform="translate(398.376953 0)"/>
      <use xlink:href="#DejaVuSans-74" transform="translate(465.035156 0)"/>
      <use xlink:href="#DejaVuSans-74" transform="translate(504.244141 0)"/>
      <use xlink:href="#DejaVuSans-61" transform="translate(543.453125 0)"/>
      <use xlink:href="#DejaVuSans-63" transform="translate(604.732422 0)"/>
      <use xlink:href="#DejaVuSans-6b" transform="translate(659.712891 0)"/>
      <use xlink:href="#DejaVuSans-65" transform="translate(713.998047 0)"/>
      <use xlink:href="#DejaVuSans-72" transform="translate(775.521484 0)"/>
     </g>
    </g>
   </g>
   <g id="text_18">
    <!-- SPOF-Aware Network Visualization (with Terminal Links) -->
    <g transform="translate(582.315 23.04) scale(0.16 -0.16)">
     <defs>
      <path id="AppleGothic-53" d="M 3418 4666 
L 3418 4019 
Q 3251 4160 3081 4269 
Q 2912 4378 2746 4448 
Q 2362 4627 1965 4627 
Q 1466 4627 1139 4378 
Q 806 4122 806 3770 
Q 806 3258 1562 3002 
Q 1914 2880 2262 2768 
Q 2611 2656 2970 2541 
Q 3731 2176 3731 1453 
Q 3731 749 3187 320 
Q 2669 -83 1901 -83 
Q 1389 -83 915 115 
Q 640 224 262 474 
L 262 1126 
Q 755 685 1261 506 
Q 1427 442 1587 416 
Q 1747 390 1907 390 
Q 2419 390 2771 646 
Q 3162 928 3162 1382 
Q 3162 1933 2419 2221 
Q 2061 2330 1715 2445 
Q 1370 2560 1024 2669 
Q 275 3014 275 3731 
Q 275 4333 749 4710 
Q 1235 5101 1965 5101 
Q 2413 5101 2861 4934 
Q 3091 4858 3418 4666 
z
" transform="scale(0.015625)"/>
      <path id="AppleGothic-50" d="M 262 5018 
L 1869 5018 
Q 2560 5018 3002 4781 
Q 3597 4448 3597 3718 
Q 3597 3014 3104 2630 
Q 2656 2272 1952 2272 
L 768 2272 
L 768 0 
L 262 0 
L 262 5018 
z
M 1862 4576 
L 768 4576 
L 768 2714 
L 1901 2714 
Q 2349 2714 2675 2950 
Q 3040 3219 3040 3674 
Q 3040 4186 2611 4410 
Q 2298 4576 1862 4576 
z
" transform="scale(0.015625)"/>
      <path id="AppleGothic-4f" d="M 2496 -83 
Q 1626 -83 973 595 
Q 256 1331 256 2496 
Q 256 3610 928 4378 
Q 1581 5101 2477 5101 
Q 3386 5101 4038 4390 
Q 4710 3642 4710 2502 
Q 4710 1318 3981 582 
Q 3334 -83 2496 -83 
z
M 2458 390 
Q 3168 390 3667 986 
Q 4173 1594 4173 2502 
Q 4173 2944 4051 3321 
Q 3930 3699 3686 4006 
Q 3200 4627 2483 4627 
Q 1773 4627 1280 4006 
Q 794 3398 794 2490 
Q 794 1542 1306 947 
Q 1786 390 2458 390 
z
" transform="scale(0.015625)"/>
      <path id="AppleGothic-46" d="M 339 5018 
L 3462 5018 
L 3462 4576 
L 845 4576 
L 845 2714 
L 3354 2714 
L 3354 2304 
L 845 2304 
L 845 0 
L 339 0 
L 339 5018 
z
" transform="scale(0.015625)"/>
      <path id="AppleGothic-2d" d="M 256 1958 
L 2349 1958 
L 2349 1491 
L 256 1491 
L 256 1958 
z
" transform="scale(0.015625)"/>
      <path id="AppleGothic-41" d="M 2086 5018 
L 2579 5018 
L 4448 0 
L 3859 0 
L 3258 1715 
L 1350 1715 
L 723 0 
L 166 0 
L 2086 5018 
z
M 3117 2157 
L 2342 4416 
L 1504 2157 
L 3117 2157 
z
" transform="scale(0.015625)"/>
      <path id="AppleGothic-77" d="M 2438 3424 
L 2874 3424 
L 3405 1811 
Q 3501 1498 3600 1162 
Q 3699 826 3770 538 
Q 3789 602 3805 646 
Q 3821 691 3834 736 
Q 3904 979 3977 1228 
Q 4051 1478 4122 1747 
L 4646 3424 
L 5126 3424 
L 3981 0 
L 3552 0 
L 2944 1894 
Q 2842 2202 2781 2378 
Q 2720 2554 2707 2618 
Q 2682 2726 2669 2803 
Q 2656 2880 2656 2944 
Q 2598 2771 2556 2636 
Q 2515 2502 2490 2406 
Q 2406 2118 2361 1945 
Q 2317 1773 2304 1715 
L 1760 0 
L 1325 0 
L 186 3424 
L 685 3424 
L 1594 538 
Q 1626 723 1664 886 
Q 1702 1050 1747 1203 
Q 1779 1312 1811 1427 
Q 1843 1542 1888 1664 
L 2438 3424 
z
" transform="scale(0.015625)"/>
      <path id="AppleGothic-61" d="M 2950 2214 
L 2950 602 
Q 2950 493 2998 413 
Q 3046 333 3174 333 
Q 3213 333 3238 336 
Q 3264 339 3290 346 
Q 3328 358 3357 371 
Q 3386 384 3405 390 
L 3405 32 
Q 3290 -6 3174 -22 
Q 3059 -38 2995 -38 
Q 2669 -38 2566 134 
Q 2483 243 2483 602 
Q 2400 461 2317 355 
Q 2234 250 2150 179 
Q 1818 -83 1376 -83 
Q 909 -83 563 192 
Q 205 486 205 941 
Q 205 1510 781 1779 
Q 992 1882 1341 1958 
Q 1690 2035 2176 2099 
L 2483 2131 
Q 2483 2579 2256 2832 
Q 2029 3085 1587 3085 
Q 1421 3085 1257 3043 
Q 1094 3002 928 2912 
Q 838 2861 729 2790 
Q 621 2720 493 2611 
L 493 3136 
Q 1037 3501 1664 3501 
Q 2304 3501 2650 3098 
Q 2950 2746 2950 2214 
z
M 2483 1542 
L 2483 1747 
L 2266 1722 
Q 1466 1638 1139 1498 
Q 704 1325 704 934 
Q 704 819 755 713 
Q 806 608 896 525 
Q 986 442 1117 390 
Q 1248 339 1408 339 
Q 1843 339 2170 691 
Q 2483 1050 2483 1542 
z
" transform="scale(0.015625)"/>
      <path id="AppleGothic-72" d="M 2125 3424 
L 2125 2963 
Q 2054 2989 2009 3005 
Q 1965 3021 1933 3027 
Q 1901 3034 1865 3037 
Q 1830 3040 1773 3040 
Q 1306 3040 1005 2586 
Q 749 2170 749 1658 
L 749 0 
L 288 0 
L 288 3424 
L 710 3424 
L 742 2835 
Q 902 3104 1043 3219 
Q 1331 3456 1734 3456 
Q 1843 3456 1936 3449 
Q 2029 3443 2125 3424 
z
" transform="scale(0.015625)"/>
      <path id="AppleGothic-65" d="M 3296 1850 
L 691 1850 
Q 691 1114 1033 726 
Q 1376 339 1933 339 
Q 2355 339 2746 608 
Q 2854 678 2976 784 
Q 3098 890 3238 1030 
L 3238 474 
Q 3085 358 2953 272 
Q 2822 186 2707 128 
Q 2304 -83 1901 -83 
Q 1203 -83 717 397 
Q 192 902 192 1709 
Q 192 2470 666 2982 
Q 1146 3501 1850 3501 
Q 2534 3501 2938 3002 
Q 3296 2547 3296 1850 
z
M 755 2240 
L 2758 2240 
Q 2682 2675 2429 2889 
Q 2176 3104 1818 3104 
Q 1421 3104 1146 2854 
Q 890 2624 755 2240 
z
" transform="scale(0.015625)"/>
      <path id="AppleGothic-20" transform="scale(0.015625)"/>
      <path id="AppleGothic-4e" d="M 320 0 
L 320 5018 
L 781 5018 
L 3866 768 
L 3866 5018 
L 4326 5018 
L 4326 0 
L 3866 0 
L 781 4243 
L 781 0 
L 320 0 
z
" transform="scale(0.015625)"/>
      <path id="AppleGothic-74" d="M 691 4435 
L 1114 4435 
L 1114 3430 
L 2016 3430 
L 2016 3014 
L 1114 3014 
L 1114 838 
Q 1114 570 1213 454 
Q 1312 339 1555 339 
Q 1696 339 1795 371 
Q 1894 403 2016 454 
L 2016 38 
Q 1914 6 1770 -22 
Q 1626 -51 1478 -51 
Q 1094 -51 883 122 
Q 646 301 646 698 
L 646 3014 
L 70 3014 
L 70 3430 
L 646 3430 
L 691 4435 
z
" transform="scale(0.015625)"/>
      <path id="AppleGothic-6f" d="M 1888 -83 
Q 1229 -83 730 397 
Q 198 902 198 1709 
Q 198 2470 666 2982 
Q 1146 3501 1850 3501 
Q 2547 3501 3027 2982 
Q 3501 2470 3501 1715 
Q 3501 922 2989 403 
Q 2515 -83 1888 -83 
z
M 1843 339 
Q 2304 339 2662 723 
Q 3008 1114 3008 1715 
Q 3008 2336 2637 2726 
Q 2298 3085 1850 3085 
Q 1389 3085 1062 2714 
Q 704 2304 704 1709 
Q 704 1107 1056 704 
Q 1382 339 1843 339 
z
" transform="scale(0.015625)"/>
      <path id="AppleGothic-6b" d="M 288 5018 
L 755 5018 
L 755 1914 
L 2330 3424 
L 2982 3424 
L 1542 2093 
L 3187 0 
L 2554 0 
L 1197 1786 
L 755 1376 
L 755 0 
L 288 0 
L 288 5018 
z
" transform="scale(0.015625)"/>
      <path id="AppleGothic-56" d="M 109 5018 
L 678 5018 
L 2310 608 
L 3910 5018 
L 4493 5018 
L 2573 0 
L 2074 0 
L 109 5018 
z
" transform="scale(0.015625)"/>
      <path id="AppleGothic-69" d="M 256 3424 
L 717 3424 
L 717 0 
L 256 0 
L 256 3424 
z
M 480 4870 
Q 614 4870 704 4780 
Q 794 4691 794 4525 
Q 794 4358 710 4268 
Q 627 4179 480 4179 
Q 333 4179 253 4281 
Q 173 4384 173 4518 
Q 173 4730 269 4800 
Q 365 4870 480 4870 
z
" transform="scale(0.015625)"/>
      <path id="AppleGothic-73" d="M 224 294 
L 224 851 
Q 621 531 1030 403 
Q 1152 371 1267 355 
Q 1382 339 1504 339 
Q 1894 339 2150 518 
Q 2413 710 2413 947 
Q 2413 1075 2317 1210 
Q 2182 1376 1600 1510 
Q 909 1683 678 1798 
Q 230 2054 230 2515 
Q 230 2944 602 3219 
Q 979 3501 1542 3501 
Q 1798 3501 2003 3456 
Q 2208 3411 2387 3337 
Q 2566 3264 2720 3155 
L 2720 2598 
Q 2451 2822 2156 2953 
Q 1862 3085 1536 3085 
Q 1210 3085 973 2938 
Q 730 2790 730 2554 
Q 730 2240 1306 2054 
Q 1574 1978 1836 1901 
Q 2099 1824 2368 1747 
Q 2950 1498 2950 992 
Q 2950 563 2547 237 
Q 2138 -83 1530 -83 
Q 1261 -83 1005 -26 
Q 595 64 224 294 
z
" transform="scale(0.015625)"/>
      <path id="AppleGothic-75" d="M 262 3424 
L 730 3424 
L 730 1242 
Q 730 877 941 627 
Q 1171 339 1594 339 
Q 2080 339 2426 730 
Q 2784 1139 2784 1632 
L 2784 3424 
L 3245 3424 
L 3245 0 
L 2842 0 
L 2810 582 
Q 2707 442 2592 330 
Q 2477 218 2342 134 
Q 1984 -83 1555 -83 
Q 966 -83 614 282 
Q 262 653 262 1184 
L 262 3424 
z
" transform="scale(0.015625)"/>
      <path id="AppleGothic-6c" d="M 288 5018 
L 749 5018 
L 749 0 
L 288 0 
L 288 5018 
z
" transform="scale(0.015625)"/>
      <path id="AppleGothic-7a" d="M 333 2989 
L 333 3424 
L 3059 3424 
L 3059 3040 
L 762 378 
Q 890 378 1178 397 
Q 1318 403 1430 406 
Q 1542 410 1632 410 
L 3149 410 
L 3149 0 
L 211 0 
L 211 378 
L 2496 3040 
Q 2330 3027 2163 3020 
Q 1997 3014 1818 3002 
Q 1638 2995 1500 2992 
Q 1363 2989 1261 2989 
L 333 2989 
z
" transform="scale(0.015625)"/>
      <path id="AppleGothic-6e" d="M 3264 2291 
L 3264 0 
L 2803 0 
L 2803 2259 
Q 2803 2618 2541 2848 
Q 2278 3085 1914 3085 
Q 1427 3085 1075 2682 
Q 723 2272 723 1760 
L 723 0 
L 288 0 
L 288 3424 
L 691 3424 
L 710 2784 
Q 883 3046 1114 3219 
Q 1491 3501 1965 3501 
Q 2515 3501 2886 3168 
Q 3264 2842 3264 2291 
z
" transform="scale(0.015625)"/>
      <path id="AppleGothic-28" d="M 2227 5261 
L 2650 5261 
Q 2342 4768 2169 4473 
Q 1997 4179 1958 4083 
Q 1606 3283 1606 2272 
Q 1606 1587 1754 1018 
Q 1882 570 2138 102 
Q 2150 70 2275 -131 
Q 2400 -333 2630 -717 
L 2227 -717 
Q 2099 -531 1980 -355 
Q 1862 -179 1734 0 
Q 1581 243 1469 483 
Q 1357 723 1274 954 
Q 1069 1587 1069 2272 
Q 1069 2963 1261 3558 
Q 1338 3789 1450 4022 
Q 1562 4256 1715 4499 
Q 1843 4691 1971 4880 
Q 2099 5069 2227 5261 
z
" transform="scale(0.015625)"/>
      <path id="AppleGothic-68" d="M 288 5018 
L 749 5018 
L 749 2810 
Q 909 3066 1139 3238 
Q 1491 3501 1926 3501 
Q 2195 3501 2409 3424 
Q 2624 3347 2803 3200 
Q 3181 2867 3181 2266 
L 3181 0 
L 2714 0 
L 2714 2202 
Q 2714 2573 2477 2829 
Q 2240 3085 1901 3085 
Q 1408 3085 1082 2694 
Q 749 2291 749 1773 
L 749 0 
L 288 0 
L 288 5018 
z
" transform="scale(0.015625)"/>
      <path id="AppleGothic-54" d="M 166 5018 
L 4038 5018 
L 4038 4576 
L 2355 4576 
L 2355 0 
L 1856 0 
L 1856 4576 
L 166 4576 
L 166 5018 
z
" transform="scale(0.015625)"/>
      <path id="AppleGothic-6d" d="M 5389 2195 
L 5389 0 
L 4922 0 
L 4922 2304 
Q 4922 2669 4672 2893 
Q 4461 3085 4173 3085 
Q 3744 3085 3405 2688 
Q 3072 2298 3072 1722 
L 3072 0 
L 2605 0 
L 2605 2304 
Q 2605 2650 2368 2861 
Q 2144 3085 1856 3085 
Q 1440 3085 1114 2714 
Q 755 2304 755 1702 
L 755 0 
L 288 0 
L 288 3424 
L 723 3424 
L 742 2880 
Q 928 3181 1274 3354 
Q 1581 3501 1894 3501 
Q 2381 3501 2714 3219 
Q 2957 3008 3021 2797 
Q 3149 3034 3386 3226 
Q 3757 3501 4205 3501 
Q 4749 3501 5050 3174 
Q 5389 2803 5389 2195 
z
" transform="scale(0.015625)"/>
      <path id="AppleGothic-4c" d="M 333 5018 
L 838 5018 
L 838 442 
L 3315 442 
L 3315 0 
L 333 0 
L 333 5018 
z
" transform="scale(0.015625)"/>
      <path id="AppleGothic-29" d="M 2221 2272 
Q 2221 1587 2016 960 
Q 1862 499 1555 6 
Q 1427 -179 1305 -355 
Q 1184 -531 1062 -717 
L 659 -717 
Q 781 -512 902 -310 
Q 1024 -109 1152 96 
Q 1280 333 1376 557 
Q 1472 781 1530 1005 
Q 1683 1562 1683 2272 
Q 1683 2650 1641 2973 
Q 1600 3296 1517 3584 
Q 1459 3802 1356 4029 
Q 1254 4256 1120 4499 
Q 992 4691 873 4880 
Q 755 5069 640 5261 
L 1062 5261 
Q 1190 5069 1315 4880 
Q 1440 4691 1568 4506 
Q 1722 4256 1837 4022 
Q 1952 3789 2022 3565 
Q 2221 2976 2221 2272 
z
" transform="scale(0.015625)"/>
     </defs>
     <use xlink:href="#AppleGothic-53"/>
     <use xlink:href="#AppleGothic-50" transform="translate(63.199997 0)"/>
     <use xlink:href="#AppleGothic-4f" transform="translate(123.499985 0)"/>
     <use xlink:href="#AppleGothic-46" transform="translate(201.099976 0)"/>
     <use xlink:href="#AppleGothic-2d" transform="translate(259.299973 0)"/>
     <use xlink:href="#AppleGothic-41" transform="translate(309.299957 0)"/>
     <use xlink:href="#AppleGothic-77" transform="translate(381.899948 0)"/>
     <use xlink:href="#AppleGothic-61" transform="translate(465.399933 0)"/>
     <use xlink:href="#AppleGothic-72" transform="translate(521.899918 0)"/>
     <use xlink:href="#AppleGothic-65" transform="translate(557.099915 0)"/>
     <use xlink:href="#AppleGothic-20" transform="translate(611.999908 0)"/>
     <use xlink:href="#AppleGothic-4e" transform="translate(643.999893 0)"/>
     <use xlink:href="#AppleGothic-65" transform="translate(716.599884 0)"/>
     <use xlink:href="#AppleGothic-74" transform="translate(771.499878 0)"/>
     <use xlink:href="#AppleGothic-77" transform="translate(805.699875 0)"/>
     <use xlink:href="#AppleGothic-6f" transform="translate(889.19986 0)"/>
     <use xlink:href="#AppleGothic-72" transform="translate(947.499847 0)"/>
     <use xlink:href="#AppleGothic-6b" transform="translate(982.699844 0)"/>
     <use xlink:href="#AppleGothic-20" transform="translate(1034.099838 0)"/>
     <use xlink:href="#AppleGothic-56" transform="translate(1066.099823 0)"/>
     <use xlink:href="#AppleGothic-69" transform="translate(1137.199814 0)"/>
     <use xlink:href="#AppleGothic-73" transform="translate(1153.099808 0)"/>
     <use xlink:href="#AppleGothic-75" transform="translate(1202.699799 0)"/>
     <use xlink:href="#AppleGothic-61" transform="translate(1258.199783 0)"/>
     <use xlink:href="#AppleGothic-6c" transform="translate(1314.699768 0)"/>
     <use xlink:href="#AppleGothic-69" transform="translate(1331.399765 0)"/>
     <use xlink:href="#AppleGothic-7a" transform="translate(1347.299759 0)"/>
     <use xlink:href="#AppleGothic-61" transform="translate(1399.89975 0)"/>
     <use xlink:href="#AppleGothic-74" transform="translate(1456.399734 0)"/>
     <use xlink:href="#AppleGothic-69" transform="translate(1490.599731 0)"/>
     <use xlink:href="#AppleGothic-6f" transform="translate(1506.499725 0)"/>
     <use xlink:href="#AppleGothic-6e" transform="translate(1564.799713 0)"/>
     <use xlink:href="#AppleGothic-20" transform="translate(1620.699707 0)"/>
     <use xlink:href="#AppleGothic-28" transform="translate(1652.699692 0)"/>
     <use xlink:href="#AppleGothic-77" transform="translate(1702.699677 0)"/>
     <use xlink:href="#AppleGothic-69" transform="translate(1786.199661 0)"/>
     <use xlink:href="#AppleGothic-74" transform="translate(1802.099655 0)"/>
     <use xlink:href="#AppleGothic-68" transform="translate(1836.299652 0)"/>
     <use xlink:href="#AppleGothic-20" transform="translate(1888.499649 0)"/>
     <use xlink:href="#AppleGothic-54" transform="translate(1920.499634 0)"/>
     <use xlink:href="#AppleGothic-65" transform="translate(1986.599625 0)"/>
     <use xlink:href="#AppleGothic-72" transform="translate(2041.499619 0)"/>
     <use xlink:href="#AppleGothic-6d" transform="translate(2076.699615 0)"/>
     <use xlink:href="#AppleGothic-69" transform="translate(2165.999603 0)"/>
     <use xlink:href="#AppleGothic-6e" transform="translate(2181.899597 0)"/>
     <use xlink:href="#AppleGothic-61" transform="translate(2237.799591 0)"/>
     <use xlink:href="#AppleGothic-6c" transform="translate(2294.299576 0)"/>
     <use xlink:href="#AppleGothic-20" transform="translate(2310.999573 0)"/>
     <use xlink:href="#AppleGothic-4c" transform="translate(2342.999557 0)"/>
     <use xlink:href="#AppleGothic-69" transform="translate(2398.199554 0)"/>
     <use xlink:href="#AppleGothic-6e" transform="translate(2414.099548 0)"/>
     <use xlink:href="#AppleGothic-6b" transform="translate(2469.999542 0)"/>
     <use xlink:href="#AppleGothic-73" transform="translate(2521.399536 0)"/>
     <use xlink:href="#AppleGothic-29" transform="translate(2570.999527 0)"/>
    </g>
   </g>
   <g id="legend_1">
    <g id="patch_52">
     <path d="M 17.8 848.2 
L 152.73125 848.2 
Q 154.73125 848.2 154.73125 846.2 
L 154.73125 745.273438 
Q 154.73125 743.273438 152.73125 743.273438 
L 17.8 743.273438 
Q 15.8 743.273438 15.8 745.273438 
L 15.8 846.2 
Q 15.8 848.2 17.8 848.2 
z
" style="fill: #ffffff; opacity: 0.8; stroke: #cccccc; stroke-linejoin: miter"/>
    </g>
    <g id="line2d_1">
     <path d="M 19.8 751.614063 
L 29.8 751.614063 
L 39.8 751.614063 
" style="fill: none; stroke: #ffffff; stroke-width: 1.5; stroke-linecap: square"/>
     <defs>
      <path id="ma4404b04d9" d="M 0 7.5 
C 1.989023 7.5 3.896849 6.709753 5.303301 5.303301 
C 6.709753 3.896849 7.5 1.989023 7.5 0 
C 7.5 -1.989023 6.709753 -3.896849 5.303301 -5.303301 
C 3.896849 -6.709753 1.989023 -7.5 0 -7.5 
C -1.989023 -7.5 -3.896849 -6.709753 -5.303301 -5.303301 
C -6.709753 -3.896849 -7.5 -1.989023 -7.5 0 
C -7.5 1.989023 -6.709753 3.896849 -5.303301 5.303301 
C -3.896849 6.709753 -1.989023 7.5 0 7.5 
z
" style="stroke: #ffffff"/>
     </defs>
     <g>
      <use xlink:href="#ma4404b04d9" x="29.8" y="751.614063" style="fill: #ff3333; stroke: #ffffff"/>
     </g>
    </g>
    <g id="text_19">
     <!-- SPOF: Absolute -->
     <g transform="translate(47.8 755.114063) scale(0.1 -0.1)">
      <defs>
       <path id="AppleGothic-3a" d="M 1587 2554 
Q 1434 2554 1357 2682 
Q 1280 2810 1280 2995 
Q 1280 3187 1360 3318 
Q 1440 3450 1587 3450 
Q 1722 3450 1805 3331 
Q 1888 3213 1888 3008 
Q 1888 2816 1811 2685 
Q 1734 2554 1587 2554 
z
M 1587 -19 
Q 1434 -19 1357 109 
Q 1280 237 1280 422 
Q 1280 614 1360 745 
Q 1440 877 1587 877 
Q 1722 877 1805 758 
Q 1888 640 1888 435 
Q 1888 243 1811 112 
Q 1734 -19 1587 -19 
z
" transform="scale(0.015625)"/>
       <path id="AppleGothic-62" d="M 288 5018 
L 755 5018 
L 755 2848 
Q 845 2982 931 3078 
Q 1018 3174 1107 3245 
Q 1440 3501 1882 3501 
Q 2547 3501 2976 2995 
Q 3418 2483 3418 1754 
Q 3418 1005 2976 480 
Q 2502 -83 1792 -83 
Q 1402 -83 1114 90 
Q 928 192 755 384 
L 634 0 
L 288 0 
L 288 5018 
z
M 755 1862 
L 755 870 
Q 845 762 934 678 
Q 1024 595 1101 538 
Q 1382 339 1741 339 
Q 2234 339 2554 742 
Q 2874 1158 2874 1747 
Q 2874 2362 2515 2752 
Q 2208 3085 1805 3085 
Q 1370 3085 1056 2714 
Q 755 2355 755 1862 
z
" transform="scale(0.015625)"/>
      </defs>
      <use xlink:href="#AppleGothic-53"/>
      <use xlink:href="#AppleGothic-50" transform="translate(63.199997 0)"/>
      <use xlink:href="#AppleGothic-4f" transform="translate(123.499985 0)"/>
      <use xlink:href="#AppleGothic-46" transform="translate(201.099976 0)"/>
      <use xlink:href="#AppleGothic-3a" transform="translate(259.299973 0)"/>
      <use xlink:href="#AppleGothic-20" transform="translate(309.299957 0)"/>
      <use xlink:href="#AppleGothic-41" transform="translate(341.299942 0)"/>
      <use xlink:href="#AppleGothic-62" transform="translate(413.899933 0)"/>
      <use xlink:href="#AppleGothic-73" transform="translate(470.09993 0)"/>
      <use xlink:href="#AppleGothic-6f" transform="translate(519.699921 0)"/>
      <use xlink:href="#AppleGothic-6c" transform="translate(577.999908 0)"/>
      <use xlink:href="#AppleGothic-75" transform="translate(594.699905 0)"/>
      <use xlink:href="#AppleGothic-74" transform="translate(650.19989 0)"/>
      <use xlink:href="#AppleGothic-65" transform="translate(684.399887 0)"/>
     </g>
    </g>
    <g id="line2d_2">
     <path d="M 19.8 766.175 
L 29.8 766.175 
L 39.8 766.175 
" style="fill: none; stroke: #ffffff; stroke-width: 1.5; stroke-linecap: square"/>
     <defs>
      <path id="me070dc2763" d="M -7.5 7.5 
L 7.5 7.5 
L 7.5 -7.5 
L -7.5 -7.5 
z
" style="stroke: #ffffff; stroke-linejoin: miter"/>
     </defs>
     <g>
      <use xlink:href="#me070dc2763" x="29.8" y="766.175" style="fill: #ffcc00; stroke: #ffffff; stroke-linejoin: miter"/>
     </g>
    </g>
    <g id="text_20">
     <!-- SPOF: Relative -->
     <g transform="translate(47.8 769.675) scale(0.1 -0.1)">
      <defs>
       <path id="AppleGothic-52" d="M 314 5018 
L 1971 5018 
Q 2637 5018 3072 4800 
Q 3680 4493 3680 3776 
Q 3680 3283 3405 2969 
Q 3130 2656 2522 2470 
Q 2630 2426 2713 2384 
Q 2797 2342 2848 2291 
Q 3072 2099 3200 1728 
L 3840 0 
L 3270 0 
L 2938 1050 
Q 2675 1837 2387 2080 
Q 2138 2310 1562 2310 
L 819 2310 
L 819 0 
L 314 0 
L 314 5018 
z
M 2067 4576 
L 819 4576 
L 819 2707 
L 1587 2707 
Q 2048 2707 2365 2793 
Q 2682 2880 2880 3072 
Q 3014 3194 3100 3373 
Q 3187 3552 3187 3738 
Q 3187 4090 2899 4320 
Q 2586 4576 2067 4576 
z
" transform="scale(0.015625)"/>
       <path id="AppleGothic-76" d="M 109 3424 
L 627 3424 
L 1715 486 
L 2829 3424 
L 3290 3424 
L 1920 0 
L 1478 0 
L 109 3424 
z
" transform="scale(0.015625)"/>
      </defs>
      <use xlink:href="#AppleGothic-53"/>
      <use xlink:href="#AppleGothic-50" transform="translate(63.199997 0)"/>
      <use xlink:href="#AppleGothic-4f" transform="translate(123.499985 0)"/>
      <use xlink:href="#AppleGothic-46" transform="translate(201.099976 0)"/>
      <use xlink:href="#AppleGothic-3a" transform="translate(259.299973 0)"/>
      <use xlink:href="#AppleGothic-20" transform="translate(309.299957 0)"/>
      <use xlink:href="#AppleGothic-52" transform="translate(341.299942 0)"/>
      <use xlink:href="#AppleGothic-65" transform="translate(405.299927 0)"/>
      <use xlink:href="#AppleGothic-6c" transform="translate(460.199921 0)"/>
      <use xlink:href="#AppleGothic-61" transform="translate(476.899918 0)"/>
      <use xlink:href="#AppleGothic-74" transform="translate(533.399902 0)"/>
      <use xlink:href="#AppleGothic-69" transform="translate(567.599899 0)"/>
      <use xlink:href="#AppleGothic-76" transform="translate(583.499893 0)"/>
      <use xlink:href="#AppleGothic-65" transform="translate(637.69989 0)"/>
     </g>
    </g>
    <g id="line2d_3">
     <path d="M 19.8 780.735938 
L 29.8 780.735938 
L 39.8 780.735938 
" style="fill: none; stroke: #ffffff; stroke-width: 1.5; stroke-linecap: square"/>
     <defs>
      <path id="mb51fd59b95" d="M 0 -7.5 
L -7.5 7.5 
L 7.5 7.5 
z
" style="stroke: #ffffff; stroke-linejoin: miter"/>
     </defs>
     <g>
      <use xlink:href="#mb51fd59b95" x="29.8" y="780.735938" style="fill: #99ccff; stroke: #ffffff; stroke-linejoin: miter"/>
     </g>
    </g>
    <g id="text_21">
     <!-- SPOF: Redundant -->
     <g transform="translate(47.8 784.235938) scale(0.1 -0.1)">
      <defs>
       <path id="AppleGothic-64" d="M 2682 5018 
L 3174 5018 
L 3174 0 
L 2733 0 
L 2688 557 
Q 2598 429 2508 329 
Q 2419 230 2330 160 
Q 2010 -83 1587 -83 
Q 928 -83 493 429 
Q 64 941 64 1670 
Q 64 2426 518 2957 
Q 979 3501 1670 3501 
Q 1958 3501 2208 3398 
Q 2298 3360 2416 3296 
Q 2534 3232 2682 3142 
L 2682 5018 
z
M 2682 1658 
L 2682 2643 
Q 2381 2906 2157 2995 
Q 1933 3085 1722 3085 
Q 1197 3085 870 2643 
Q 563 2227 563 1677 
Q 563 1088 902 698 
Q 1216 339 1645 339 
Q 2067 339 2374 710 
Q 2682 1082 2682 1658 
z
" transform="scale(0.015625)"/>
      </defs>
      <use xlink:href="#AppleGothic-53"/>
      <use xlink:href="#AppleGothic-50" transform="translate(63.199997 0)"/>
      <use xlink:href="#AppleGothic-4f" transform="translate(123.499985 0)"/>
      <use xlink:href="#AppleGothic-46" transform="translate(201.099976 0)"/>
      <use xlink:href="#AppleGothic-3a" transform="translate(259.299973 0)"/>
      <use xlink:href="#AppleGothic-20" transform="translate(309.299957 0)"/>
      <use xlink:href="#AppleGothic-52" transform="translate(341.299942 0)"/>
      <use xlink:href="#AppleGothic-65" transform="translate(405.299927 0)"/>
      <use xlink:href="#AppleGothic-64" transform="translate(460.199921 0)"/>
      <use xlink:href="#AppleGothic-75" transform="translate(514.199905 0)"/>
      <use xlink:href="#AppleGothic-6e" transform="translate(569.69989 0)"/>
      <use xlink:href="#AppleGothic-64" transform="translate(625.599884 0)"/>
      <use xlink:href="#AppleGothic-61" transform="translate(679.599869 0)"/>
      <use xlink:href="#AppleGothic-6e" transform="translate(736.099854 0)"/>
      <use xlink:href="#AppleGothic-74" transform="translate(791.999847 0)"/>
     </g>
    </g>
    <g id="line2d_4">
     <path d="M 19.8 795.296875 
L 29.8 795.296875 
L 39.8 795.296875 
" style="fill: none; stroke: #ffffff; stroke-width: 1.5; stroke-linecap: square"/>
     <defs>
      <path id="mc95178a150" d="M -0 10.606602 
L 6.363961 0 
L 0 -10.606602 
L -6.363961 -0 
z
" style="stroke: #ffffff; stroke-linejoin: miter"/>
     </defs>
     <g>
      <use xlink:href="#mc95178a150" x="29.8" y="795.296875" style="fill: #d3d3d3; stroke: #ffffff; stroke-linejoin: miter"/>
     </g>
    </g>
    <g id="text_22">
     <!-- SPOF: Low -->
     <g transform="translate(47.8 798.796875) scale(0.1 -0.1)">
      <use xlink:href="#AppleGothic-53"/>
      <use xlink:href="#AppleGothic-50" transform="translate(63.199997 0)"/>
      <use xlink:href="#AppleGothic-4f" transform="translate(123.499985 0)"/>
      <use xlink:href="#AppleGothic-46" transform="translate(201.099976 0)"/>
      <use xlink:href="#AppleGothic-3a" transform="translate(259.299973 0)"/>
      <use xlink:href="#AppleGothic-20" transform="translate(309.299957 0)"/>
      <use xlink:href="#AppleGothic-4c" transform="translate(341.299942 0)"/>
      <use xlink:href="#AppleGothic-6f" transform="translate(396.499939 0)"/>
      <use xlink:href="#AppleGothic-77" transform="translate(454.799927 0)"/>
     </g>
    </g>
    <g id="line2d_5">
     <path d="M 19.8 809.857813 
L 29.8 809.857813 
L 39.8 809.857813 
" style="fill: none; stroke: #000000; stroke-width: 2; stroke-linecap: square"/>
    </g>
    <g id="text_23">
     <!-- Normal flow -->
     <g transform="translate(47.8 813.357813) scale(0.1 -0.1)">
      <defs>
       <path id="AppleGothic-66" d="M 646 3430 
L 646 4083 
Q 646 4538 819 4774 
Q 1037 5101 1555 5101 
Q 1613 5101 1657 5097 
Q 1702 5094 1750 5088 
Q 1798 5082 1862 5062 
Q 1926 5043 2016 5018 
L 2016 4595 
Q 1997 4621 1837 4653 
Q 1766 4666 1712 4672 
Q 1658 4678 1619 4678 
Q 1350 4678 1228 4524 
Q 1107 4371 1107 4083 
L 1107 3430 
L 2016 3430 
L 2016 3014 
L 1107 3014 
L 1107 0 
L 646 0 
L 646 3014 
L 64 3014 
L 64 3430 
L 646 3430 
z
" transform="scale(0.015625)"/>
      </defs>
      <use xlink:href="#AppleGothic-4e"/>
      <use xlink:href="#AppleGothic-6f" transform="translate(72.599991 0)"/>
      <use xlink:href="#AppleGothic-72" transform="translate(130.899979 0)"/>
      <use xlink:href="#AppleGothic-6d" transform="translate(166.099976 0)"/>
      <use xlink:href="#AppleGothic-61" transform="translate(255.399963 0)"/>
      <use xlink:href="#AppleGothic-6c" transform="translate(311.899948 0)"/>
      <use xlink:href="#AppleGothic-20" transform="translate(328.599945 0)"/>
      <use xlink:href="#AppleGothic-66" transform="translate(360.59993 0)"/>
      <use xlink:href="#AppleGothic-6c" transform="translate(394.599915 0)"/>
      <use xlink:href="#AppleGothic-6f" transform="translate(411.299911 0)"/>
      <use xlink:href="#AppleGothic-77" transform="translate(469.599899 0)"/>
     </g>
    </g>
    <g id="line2d_6">
     <path d="M 19.8 824.41875 
L 29.8 824.41875 
L 39.8 824.41875 
" style="fill: none; stroke-dasharray: 7.4,3.2; stroke-dashoffset: 0; stroke: #808080; stroke-width: 2"/>
    </g>
    <g id="text_24">
     <!-- Terminal connection -->
     <g transform="translate(47.8 827.91875) scale(0.1 -0.1)">
      <defs>
       <path id="AppleGothic-63" d="M 3085 3123 
L 3085 2522 
Q 2726 2861 2349 3008 
Q 2240 3053 2125 3069 
Q 2010 3085 1894 3085 
Q 1363 3085 1024 2688 
Q 685 2278 685 1715 
Q 685 1139 1037 730 
Q 1389 339 1920 339 
Q 2253 339 2528 483 
Q 2803 627 3085 915 
L 3085 307 
Q 2746 96 2470 6 
Q 2195 -83 1914 -83 
Q 1197 -83 685 429 
Q 186 960 186 1709 
Q 186 2445 678 2976 
Q 1178 3501 1920 3501 
Q 2298 3501 2624 3373 
Q 2816 3302 3085 3123 
z
" transform="scale(0.015625)"/>
      </defs>
      <use xlink:href="#AppleGothic-54"/>
      <use xlink:href="#AppleGothic-65" transform="translate(66.099991 0)"/>
      <use xlink:href="#AppleGothic-72" transform="translate(120.999985 0)"/>
      <use xlink:href="#AppleGothic-6d" transform="translate(156.199982 0)"/>
      <use xlink:href="#AppleGothic-69" transform="translate(245.499969 0)"/>
      <use xlink:href="#AppleGothic-6e" transform="translate(261.399963 0)"/>
      <use xlink:href="#AppleGothic-61" transform="translate(317.299957 0)"/>
      <use xlink:href="#AppleGothic-6c" transform="translate(373.799942 0)"/>
      <use xlink:href="#AppleGothic-20" transform="translate(390.499939 0)"/>
      <use xlink:href="#AppleGothic-63" transform="translate(422.499924 0)"/>
      <use xlink:href="#AppleGothic-6f" transform="translate(474.399918 0)"/>
      <use xlink:href="#AppleGothic-6e" transform="translate(532.699905 0)"/>
      <use xlink:href="#AppleGothic-6e" transform="translate(588.599899 0)"/>
      <use xlink:href="#AppleGothic-65" transform="translate(644.499893 0)"/>
      <use xlink:href="#AppleGothic-63" transform="translate(699.399887 0)"/>
      <use xlink:href="#AppleGothic-74" transform="translate(751.299881 0)"/>
      <use xlink:href="#AppleGothic-69" transform="translate(785.499878 0)"/>
      <use xlink:href="#AppleGothic-6f" transform="translate(801.399872 0)"/>
      <use xlink:href="#AppleGothic-6e" transform="translate(859.69986 0)"/>
     </g>
    </g>
    <g id="line2d_7">
     <path d="M 19.8 838.979688 
L 29.8 838.979688 
L 39.8 838.979688 
" style="fill: none; stroke: #ff0000; stroke-width: 2; stroke-linecap: square"/>
    </g>
    <g id="text_25">
     <!-- Command and Control -->
     <g transform="translate(47.8 842.479688) scale(0.1 -0.1)">
      <defs>
       <path id="AppleGothic-43" d="M 4109 4621 
L 4109 3974 
Q 3872 4205 3565 4371 
Q 3085 4627 2598 4627 
Q 1850 4627 1312 3994 
Q 1043 3680 912 3309 
Q 781 2938 781 2515 
Q 781 1651 1318 1030 
Q 1850 410 2611 410 
Q 2970 410 3344 554 
Q 3718 698 4109 998 
L 4109 378 
Q 3251 -83 2554 -83 
Q 1651 -83 973 614 
Q 243 1363 243 2490 
Q 243 3584 922 4339 
Q 1613 5101 2630 5101 
Q 3027 5101 3392 4979 
Q 3757 4858 4109 4621 
z
" transform="scale(0.015625)"/>
      </defs>
      <use xlink:href="#AppleGothic-43"/>
      <use xlink:href="#AppleGothic-6f" transform="translate(68.499985 0)"/>
      <use xlink:href="#AppleGothic-6d" transform="translate(126.799973 0)"/>
      <use xlink:href="#AppleGothic-6d" transform="translate(216.09996 0)"/>
      <use xlink:href="#AppleGothic-61" transform="translate(305.399948 0)"/>
      <use xlink:href="#AppleGothic-6e" transform="translate(361.899933 0)"/>
      <use xlink:href="#AppleGothic-64" transform="translate(417.799927 0)"/>
      <use xlink:href="#AppleGothic-20" transform="translate(471.799911 0)"/>
      <use xlink:href="#AppleGothic-61" transform="translate(503.799896 0)"/>
      <use xlink:href="#AppleGothic-6e" transform="translate(560.299881 0)"/>
      <use xlink:href="#AppleGothic-64" transform="translate(616.199875 0)"/>
      <use xlink:href="#AppleGothic-20" transform="translate(670.19986 0)"/>
      <use xlink:href="#AppleGothic-43" transform="translate(702.199844 0)"/>
      <use xlink:href="#AppleGothic-6f" transform="translate(770.699829 0)"/>
      <use xlink:href="#AppleGothic-6e" transform="translate(828.999817 0)"/>
      <use xlink:href="#AppleGothic-74" transform="translate(884.899811 0)"/>
      <use xlink:href="#AppleGothic-72" transform="translate(919.099808 0)"/>
      <use xlink:href="#AppleGothic-6f" transform="translate(954.299805 0)"/>
      <use xlink:href="#AppleGothic-6c" transform="translate(1012.599792 0)"/>
     </g>
    </g>
   </g>
  </g>
 </g>
 <defs>
  <clipPath id="pc8c4460951">
   <rect x="10.8" y="29.04" width="1562.4" height="824.16"/>
  </clipPath>
 </defs>
</svg>
